<?xml version="1.0" encoding="utf-8" standalone="no"?>
<!DOCTYPE svg PUBLIC "-//W3C//DTD SVG 1.1//EN"
  "http://www.w3.org/Graphics/SVG/1.1/DTD/svg11.dtd">
<svg xmlns:xlink="http://www.w3.org/1999/xlink" width="744.870313pt" height="377.39625pt" viewBox="0 0 744.870313 377.39625" xmlns="http://www.w3.org/2000/svg" version="1.1">
 <metadata>
  <rdf:RDF xmlns:dc="http://purl.org/dc/elements/1.1/" xmlns:cc="http://creativecommons.org/ns#" xmlns:rdf="http://www.w3.org/1999/02/22-rdf-syntax-ns#">
   <cc:Work>
    <dc:type rdf:resource="http://purl.org/dc/dcmitype/StillImage"/>
    <dc:date>2024-10-24T18:11:54.016113</dc:date>
    <dc:format>image/svg+xml</dc:format>
    <dc:creator>
     <cc:Agent>
      <dc:title>Matplotlib v3.8.3, https://matplotlib.org/</dc:title>
     </cc:Agent>
    </dc:creator>
   </cc:Work>
  </rdf:RDF>
 </metadata>
 <defs>
  <style type="text/css">*{stroke-linejoin: round; stroke-linecap: butt}</style>
 </defs>
 <g id="figure_1">
  <g id="patch_1">
   <path d="M 0 377.39625 
L 744.870313 377.39625 
L 744.870313 0 
L 0 0 
z
" style="fill: #ffffff"/>
  </g>
  <g id="axes_1">
   <g id="patch_2">
    <path d="M 68.070312 105.035294 
L 737.670313 105.035294 
L 737.670313 7.2 
L 68.070312 7.2 
z
" style="fill: #ffffff"/>
   </g>
   <g id="matplotlib.axis_1">
    <g id="xtick_1">
     <g id="line2d_1">
      <path d="M 98.506676 105.035294 
L 98.506676 7.2 
" clip-path="url(#p8f0f3f11b5)" style="fill: none; stroke: #b0b0b0; stroke-width: 0.8; stroke-linecap: square"/>
     </g>
     <g id="line2d_2">
      <defs>
       <path id="m0094c5bdca" d="M 0 0 
L 0 3.5 
" style="stroke: #000000; stroke-width: 0.8"/>
      </defs>
      <g>
       <use xlink:href="#m0094c5bdca" x="98.506676" y="105.035294" style="stroke: #000000; stroke-width: 0.8"/>
      </g>
     </g>
    </g>
    <g id="xtick_2">
     <g id="line2d_3">
      <path d="M 174.597585 105.035294 
L 174.597585 7.2 
" clip-path="url(#p8f0f3f11b5)" style="fill: none; stroke: #b0b0b0; stroke-width: 0.8; stroke-linecap: square"/>
     </g>
     <g id="line2d_4">
      <g>
       <use xlink:href="#m0094c5bdca" x="174.597585" y="105.035294" style="stroke: #000000; stroke-width: 0.8"/>
      </g>
     </g>
    </g>
    <g id="xtick_3">
     <g id="line2d_5">
      <path d="M 250.688494 105.035294 
L 250.688494 7.2 
" clip-path="url(#p8f0f3f11b5)" style="fill: none; stroke: #b0b0b0; stroke-width: 0.8; stroke-linecap: square"/>
     </g>
     <g id="line2d_6">
      <g>
       <use xlink:href="#m0094c5bdca" x="250.688494" y="105.035294" style="stroke: #000000; stroke-width: 0.8"/>
      </g>
     </g>
    </g>
    <g id="xtick_4">
     <g id="line2d_7">
      <path d="M 326.779403 105.035294 
L 326.779403 7.2 
" clip-path="url(#p8f0f3f11b5)" style="fill: none; stroke: #b0b0b0; stroke-width: 0.8; stroke-linecap: square"/>
     </g>
     <g id="line2d_8">
      <g>
       <use xlink:href="#m0094c5bdca" x="326.779403" y="105.035294" style="stroke: #000000; stroke-width: 0.8"/>
      </g>
     </g>
    </g>
    <g id="xtick_5">
     <g id="line2d_9">
      <path d="M 402.870313 105.035294 
L 402.870313 7.2 
" clip-path="url(#p8f0f3f11b5)" style="fill: none; stroke: #b0b0b0; stroke-width: 0.8; stroke-linecap: square"/>
     </g>
     <g id="line2d_10">
      <g>
       <use xlink:href="#m0094c5bdca" x="402.870313" y="105.035294" style="stroke: #000000; stroke-width: 0.8"/>
      </g>
     </g>
    </g>
    <g id="xtick_6">
     <g id="line2d_11">
      <path d="M 478.961222 105.035294 
L 478.961222 7.2 
" clip-path="url(#p8f0f3f11b5)" style="fill: none; stroke: #b0b0b0; stroke-width: 0.8; stroke-linecap: square"/>
     </g>
     <g id="line2d_12">
      <g>
       <use xlink:href="#m0094c5bdca" x="478.961222" y="105.035294" style="stroke: #000000; stroke-width: 0.8"/>
      </g>
     </g>
    </g>
    <g id="xtick_7">
     <g id="line2d_13">
      <path d="M 555.052131 105.035294 
L 555.052131 7.2 
" clip-path="url(#p8f0f3f11b5)" style="fill: none; stroke: #b0b0b0; stroke-width: 0.8; stroke-linecap: square"/>
     </g>
     <g id="line2d_14">
      <g>
       <use xlink:href="#m0094c5bdca" x="555.052131" y="105.035294" style="stroke: #000000; stroke-width: 0.8"/>
      </g>
     </g>
    </g>
    <g id="xtick_8">
     <g id="line2d_15">
      <path d="M 631.14304 105.035294 
L 631.14304 7.2 
" clip-path="url(#p8f0f3f11b5)" style="fill: none; stroke: #b0b0b0; stroke-width: 0.8; stroke-linecap: square"/>
     </g>
     <g id="line2d_16">
      <g>
       <use xlink:href="#m0094c5bdca" x="631.14304" y="105.035294" style="stroke: #000000; stroke-width: 0.8"/>
      </g>
     </g>
    </g>
    <g id="xtick_9">
     <g id="line2d_17">
      <path d="M 707.233949 105.035294 
L 707.233949 7.2 
" clip-path="url(#p8f0f3f11b5)" style="fill: none; stroke: #b0b0b0; stroke-width: 0.8; stroke-linecap: square"/>
     </g>
     <g id="line2d_18">
      <g>
       <use xlink:href="#m0094c5bdca" x="707.233949" y="105.035294" style="stroke: #000000; stroke-width: 0.8"/>
      </g>
     </g>
    </g>
    <g id="text_1">
     <!-- Time (s) -->
     <g transform="translate(382.541406 120.133732) scale(0.1 -0.1)">
      <defs>
       <path id="DejaVuSans-54" d="M -19 4666 
L 3928 4666 
L 3928 4134 
L 2272 4134 
L 2272 0 
L 1638 0 
L 1638 4134 
L -19 4134 
L -19 4666 
z
" transform="scale(0.015625)"/>
       <path id="DejaVuSans-69" d="M 603 3500 
L 1178 3500 
L 1178 0 
L 603 0 
L 603 3500 
z
M 603 4863 
L 1178 4863 
L 1178 4134 
L 603 4134 
L 603 4863 
z
" transform="scale(0.015625)"/>
       <path id="DejaVuSans-6d" d="M 3328 2828 
Q 3544 3216 3844 3400 
Q 4144 3584 4550 3584 
Q 5097 3584 5394 3201 
Q 5691 2819 5691 2113 
L 5691 0 
L 5113 0 
L 5113 2094 
Q 5113 2597 4934 2840 
Q 4756 3084 4391 3084 
Q 3944 3084 3684 2787 
Q 3425 2491 3425 1978 
L 3425 0 
L 2847 0 
L 2847 2094 
Q 2847 2600 2669 2842 
Q 2491 3084 2119 3084 
Q 1678 3084 1418 2786 
Q 1159 2488 1159 1978 
L 1159 0 
L 581 0 
L 581 3500 
L 1159 3500 
L 1159 2956 
Q 1356 3278 1631 3431 
Q 1906 3584 2284 3584 
Q 2666 3584 2933 3390 
Q 3200 3197 3328 2828 
z
" transform="scale(0.015625)"/>
       <path id="DejaVuSans-65" d="M 3597 1894 
L 3597 1613 
L 953 1613 
Q 991 1019 1311 708 
Q 1631 397 2203 397 
Q 2534 397 2845 478 
Q 3156 559 3463 722 
L 3463 178 
Q 3153 47 2828 -22 
Q 2503 -91 2169 -91 
Q 1331 -91 842 396 
Q 353 884 353 1716 
Q 353 2575 817 3079 
Q 1281 3584 2069 3584 
Q 2775 3584 3186 3129 
Q 3597 2675 3597 1894 
z
M 3022 2063 
Q 3016 2534 2758 2815 
Q 2500 3097 2075 3097 
Q 1594 3097 1305 2825 
Q 1016 2553 972 2059 
L 3022 2063 
z
" transform="scale(0.015625)"/>
       <path id="DejaVuSans-20" transform="scale(0.015625)"/>
       <path id="DejaVuSans-28" d="M 1984 4856 
Q 1566 4138 1362 3434 
Q 1159 2731 1159 2009 
Q 1159 1288 1364 580 
Q 1569 -128 1984 -844 
L 1484 -844 
Q 1016 -109 783 600 
Q 550 1309 550 2009 
Q 550 2706 781 3412 
Q 1013 4119 1484 4856 
L 1984 4856 
z
" transform="scale(0.015625)"/>
       <path id="DejaVuSans-73" d="M 2834 3397 
L 2834 2853 
Q 2591 2978 2328 3040 
Q 2066 3103 1784 3103 
Q 1356 3103 1142 2972 
Q 928 2841 928 2578 
Q 928 2378 1081 2264 
Q 1234 2150 1697 2047 
L 1894 2003 
Q 2506 1872 2764 1633 
Q 3022 1394 3022 966 
Q 3022 478 2636 193 
Q 2250 -91 1575 -91 
Q 1294 -91 989 -36 
Q 684 19 347 128 
L 347 722 
Q 666 556 975 473 
Q 1284 391 1588 391 
Q 1994 391 2212 530 
Q 2431 669 2431 922 
Q 2431 1156 2273 1281 
Q 2116 1406 1581 1522 
L 1381 1569 
Q 847 1681 609 1914 
Q 372 2147 372 2553 
Q 372 3047 722 3315 
Q 1072 3584 1716 3584 
Q 2034 3584 2315 3537 
Q 2597 3491 2834 3397 
z
" transform="scale(0.015625)"/>
       <path id="DejaVuSans-29" d="M 513 4856 
L 1013 4856 
Q 1481 4119 1714 3412 
Q 1947 2706 1947 2009 
Q 1947 1309 1714 600 
Q 1481 -109 1013 -844 
L 513 -844 
Q 928 -128 1133 580 
Q 1338 1288 1338 2009 
Q 1338 2731 1133 3434 
Q 928 4138 513 4856 
z
" transform="scale(0.015625)"/>
      </defs>
      <use xlink:href="#DejaVuSans-54"/>
      <use xlink:href="#DejaVuSans-69" x="57.958984"/>
      <use xlink:href="#DejaVuSans-6d" x="85.742188"/>
      <use xlink:href="#DejaVuSans-65" x="183.154297"/>
      <use xlink:href="#DejaVuSans-20" x="244.677734"/>
      <use xlink:href="#DejaVuSans-28" x="276.464844"/>
      <use xlink:href="#DejaVuSans-73" x="315.478516"/>
      <use xlink:href="#DejaVuSans-29" x="367.578125"/>
     </g>
    </g>
   </g>
   <g id="matplotlib.axis_2">
    <g id="ytick_1">
     <g id="line2d_19">
      <path d="M 68.070312 104.335794 
L 737.670313 104.335794 
" clip-path="url(#p8f0f3f11b5)" style="fill: none; stroke: #b0b0b0; stroke-width: 0.8; stroke-linecap: square"/>
     </g>
     <g id="line2d_20">
      <defs>
       <path id="me15d772b92" d="M 0 0 
L -3.5 0 
" style="stroke: #000000; stroke-width: 0.8"/>
      </defs>
      <g>
       <use xlink:href="#me15d772b92" x="68.070312" y="104.335794" style="stroke: #000000; stroke-width: 0.8"/>
      </g>
     </g>
     <g id="text_2">
      <!-- −10000 -->
      <g transform="translate(20.878125 108.135013) scale(0.1 -0.1)">
       <defs>
        <path id="DejaVuSans-2212" d="M 678 2272 
L 4684 2272 
L 4684 1741 
L 678 1741 
L 678 2272 
z
" transform="scale(0.015625)"/>
        <path id="DejaVuSans-31" d="M 794 531 
L 1825 531 
L 1825 4091 
L 703 3866 
L 703 4441 
L 1819 4666 
L 2450 4666 
L 2450 531 
L 3481 531 
L 3481 0 
L 794 0 
L 794 531 
z
" transform="scale(0.015625)"/>
        <path id="DejaVuSans-30" d="M 2034 4250 
Q 1547 4250 1301 3770 
Q 1056 3291 1056 2328 
Q 1056 1369 1301 889 
Q 1547 409 2034 409 
Q 2525 409 2770 889 
Q 3016 1369 3016 2328 
Q 3016 3291 2770 3770 
Q 2525 4250 2034 4250 
z
M 2034 4750 
Q 2819 4750 3233 4129 
Q 3647 3509 3647 2328 
Q 3647 1150 3233 529 
Q 2819 -91 2034 -91 
Q 1250 -91 836 529 
Q 422 1150 422 2328 
Q 422 3509 836 4129 
Q 1250 4750 2034 4750 
z
" transform="scale(0.015625)"/>
       </defs>
       <use xlink:href="#DejaVuSans-2212"/>
       <use xlink:href="#DejaVuSans-31" x="83.789062"/>
       <use xlink:href="#DejaVuSans-30" x="147.412109"/>
       <use xlink:href="#DejaVuSans-30" x="211.035156"/>
       <use xlink:href="#DejaVuSans-30" x="274.658203"/>
       <use xlink:href="#DejaVuSans-30" x="338.28125"/>
      </g>
     </g>
    </g>
    <g id="ytick_2">
     <g id="line2d_21">
      <path d="M 68.070312 79.687288 
L 737.670313 79.687288 
" clip-path="url(#p8f0f3f11b5)" style="fill: none; stroke: #b0b0b0; stroke-width: 0.8; stroke-linecap: square"/>
     </g>
     <g id="line2d_22">
      <g>
       <use xlink:href="#me15d772b92" x="68.070312" y="79.687288" style="stroke: #000000; stroke-width: 0.8"/>
      </g>
     </g>
     <g id="text_3">
      <!-- −5000 -->
      <g transform="translate(27.240625 83.486507) scale(0.1 -0.1)">
       <defs>
        <path id="DejaVuSans-35" d="M 691 4666 
L 3169 4666 
L 3169 4134 
L 1269 4134 
L 1269 2991 
Q 1406 3038 1543 3061 
Q 1681 3084 1819 3084 
Q 2600 3084 3056 2656 
Q 3513 2228 3513 1497 
Q 3513 744 3044 326 
Q 2575 -91 1722 -91 
Q 1428 -91 1123 -41 
Q 819 9 494 109 
L 494 744 
Q 775 591 1075 516 
Q 1375 441 1709 441 
Q 2250 441 2565 725 
Q 2881 1009 2881 1497 
Q 2881 1984 2565 2268 
Q 2250 2553 1709 2553 
Q 1456 2553 1204 2497 
Q 953 2441 691 2322 
L 691 4666 
z
" transform="scale(0.015625)"/>
       </defs>
       <use xlink:href="#DejaVuSans-2212"/>
       <use xlink:href="#DejaVuSans-35" x="83.789062"/>
       <use xlink:href="#DejaVuSans-30" x="147.412109"/>
       <use xlink:href="#DejaVuSans-30" x="211.035156"/>
       <use xlink:href="#DejaVuSans-30" x="274.658203"/>
      </g>
     </g>
    </g>
    <g id="ytick_3">
     <g id="line2d_23">
      <path d="M 68.070312 55.038782 
L 737.670313 55.038782 
" clip-path="url(#p8f0f3f11b5)" style="fill: none; stroke: #b0b0b0; stroke-width: 0.8; stroke-linecap: square"/>
     </g>
     <g id="line2d_24">
      <g>
       <use xlink:href="#me15d772b92" x="68.070312" y="55.038782" style="stroke: #000000; stroke-width: 0.8"/>
      </g>
     </g>
     <g id="text_4">
      <!-- 0 -->
      <g transform="translate(54.707813 58.838001) scale(0.1 -0.1)">
       <use xlink:href="#DejaVuSans-30"/>
      </g>
     </g>
    </g>
    <g id="ytick_4">
     <g id="line2d_25">
      <path d="M 68.070312 30.390276 
L 737.670313 30.390276 
" clip-path="url(#p8f0f3f11b5)" style="fill: none; stroke: #b0b0b0; stroke-width: 0.8; stroke-linecap: square"/>
     </g>
     <g id="line2d_26">
      <g>
       <use xlink:href="#me15d772b92" x="68.070312" y="30.390276" style="stroke: #000000; stroke-width: 0.8"/>
      </g>
     </g>
     <g id="text_5">
      <!-- 5000 -->
      <g transform="translate(35.620312 34.189495) scale(0.1 -0.1)">
       <use xlink:href="#DejaVuSans-35"/>
       <use xlink:href="#DejaVuSans-30" x="63.623047"/>
       <use xlink:href="#DejaVuSans-30" x="127.246094"/>
       <use xlink:href="#DejaVuSans-30" x="190.869141"/>
      </g>
     </g>
    </g>
    <g id="text_6">
     <!-- Current (A) -->
     <g transform="translate(14.798437 83.805147) rotate(-90) scale(0.1 -0.1)">
      <defs>
       <path id="DejaVuSans-43" d="M 4122 4306 
L 4122 3641 
Q 3803 3938 3442 4084 
Q 3081 4231 2675 4231 
Q 1875 4231 1450 3742 
Q 1025 3253 1025 2328 
Q 1025 1406 1450 917 
Q 1875 428 2675 428 
Q 3081 428 3442 575 
Q 3803 722 4122 1019 
L 4122 359 
Q 3791 134 3420 21 
Q 3050 -91 2638 -91 
Q 1578 -91 968 557 
Q 359 1206 359 2328 
Q 359 3453 968 4101 
Q 1578 4750 2638 4750 
Q 3056 4750 3426 4639 
Q 3797 4528 4122 4306 
z
" transform="scale(0.015625)"/>
       <path id="DejaVuSans-75" d="M 544 1381 
L 544 3500 
L 1119 3500 
L 1119 1403 
Q 1119 906 1312 657 
Q 1506 409 1894 409 
Q 2359 409 2629 706 
Q 2900 1003 2900 1516 
L 2900 3500 
L 3475 3500 
L 3475 0 
L 2900 0 
L 2900 538 
Q 2691 219 2414 64 
Q 2138 -91 1772 -91 
Q 1169 -91 856 284 
Q 544 659 544 1381 
z
M 1991 3584 
L 1991 3584 
z
" transform="scale(0.015625)"/>
       <path id="DejaVuSans-72" d="M 2631 2963 
Q 2534 3019 2420 3045 
Q 2306 3072 2169 3072 
Q 1681 3072 1420 2755 
Q 1159 2438 1159 1844 
L 1159 0 
L 581 0 
L 581 3500 
L 1159 3500 
L 1159 2956 
Q 1341 3275 1631 3429 
Q 1922 3584 2338 3584 
Q 2397 3584 2469 3576 
Q 2541 3569 2628 3553 
L 2631 2963 
z
" transform="scale(0.015625)"/>
       <path id="DejaVuSans-6e" d="M 3513 2113 
L 3513 0 
L 2938 0 
L 2938 2094 
Q 2938 2591 2744 2837 
Q 2550 3084 2163 3084 
Q 1697 3084 1428 2787 
Q 1159 2491 1159 1978 
L 1159 0 
L 581 0 
L 581 3500 
L 1159 3500 
L 1159 2956 
Q 1366 3272 1645 3428 
Q 1925 3584 2291 3584 
Q 2894 3584 3203 3211 
Q 3513 2838 3513 2113 
z
" transform="scale(0.015625)"/>
       <path id="DejaVuSans-74" d="M 1172 4494 
L 1172 3500 
L 2356 3500 
L 2356 3053 
L 1172 3053 
L 1172 1153 
Q 1172 725 1289 603 
Q 1406 481 1766 481 
L 2356 481 
L 2356 0 
L 1766 0 
Q 1100 0 847 248 
Q 594 497 594 1153 
L 594 3053 
L 172 3053 
L 172 3500 
L 594 3500 
L 594 4494 
L 1172 4494 
z
" transform="scale(0.015625)"/>
       <path id="DejaVuSans-41" d="M 2188 4044 
L 1331 1722 
L 3047 1722 
L 2188 4044 
z
M 1831 4666 
L 2547 4666 
L 4325 0 
L 3669 0 
L 3244 1197 
L 1141 1197 
L 716 0 
L 50 0 
L 1831 4666 
z
" transform="scale(0.015625)"/>
      </defs>
      <use xlink:href="#DejaVuSans-43"/>
      <use xlink:href="#DejaVuSans-75" x="69.824219"/>
      <use xlink:href="#DejaVuSans-72" x="133.203125"/>
      <use xlink:href="#DejaVuSans-72" x="172.566406"/>
      <use xlink:href="#DejaVuSans-65" x="211.429688"/>
      <use xlink:href="#DejaVuSans-6e" x="272.953125"/>
      <use xlink:href="#DejaVuSans-74" x="336.332031"/>
      <use xlink:href="#DejaVuSans-20" x="375.541016"/>
      <use xlink:href="#DejaVuSans-28" x="407.328125"/>
      <use xlink:href="#DejaVuSans-41" x="446.341797"/>
      <use xlink:href="#DejaVuSans-29" x="514.75"/>
     </g>
    </g>
   </g>
   <g id="line2d_27">
    <path d="M 98.506676 56.366104 
L 104.84965 56.741353 
L 110.59797 56.858335 
L 116.34629 56.747268 
L 122.292828 56.407464 
L 129.428674 55.763448 
L 152.223736 53.506039 
L 158.170274 53.255857 
L 163.918594 53.240969 
L 169.666914 53.451418 
L 176.009888 53.912641 
L 184.335041 54.763399 
L 199.003168 56.287278 
L 205.346142 56.69876 
L 211.094462 56.854391 
L 216.842782 56.782417 
L 222.78932 56.478403 
L 229.52873 55.903945 
L 240.628934 54.692101 
L 249.945177 53.774116 
L 256.288151 53.369733 
L 262.036471 53.221842 
L 267.586573 53.295097 
L 273.533111 53.599112 
L 280.272521 54.17357 
L 291.570943 55.407321 
L 300.688968 56.303447 
L 307.031942 56.707782 
L 312.780262 56.855722 
L 318.528582 56.77591 
L 324.47512 56.464649 
L 331.412748 55.864408 
L 344.098695 54.476057 
L 352.423849 53.696276 
L 358.568604 53.336211 
L 364.316925 53.219229 
L 370.065245 53.330295 
L 376.011783 53.67005 
L 383.147628 54.314067 
L 402.771204 56.350723 
L 403.167639 54.353307 
L 404.158729 51.369803 
L 404.753383 50.118349 
L 407.330216 44.132804 
L 407.92487 42.896928 
L 409.907049 38.787036 
L 411.096357 36.121546 
L 411.889228 34.351784 
L 413.078536 31.411217 
L 415.258933 26.499263 
L 418.628638 20.090651 
L 421.007253 16.446123 
L 421.998343 15.236867 
L 422.989433 14.21987 
L 423.782304 13.555346 
L 425.16983 12.685254 
L 425.962702 12.335738 
L 427.152009 11.94432 
L 428.143099 11.748611 
L 429.134189 11.662834 
L 430.125278 11.70868 
L 431.116368 11.90784 
L 432.107458 12.26968 
L 433.296765 12.904133 
L 434.486073 13.731829 
L 435.873598 14.908056 
L 438.053996 17.158958 
L 439.837957 19.420212 
L 441.820136 22.470218 
L 444.000534 26.378978 
L 446.973803 32.402087 
L 449.550636 38.300967 
L 452.127469 44.706128 
L 463.029455 72.394288 
L 465.606288 78.15563 
L 467.786686 82.523838 
L 469.570647 85.653705 
L 471.15639 88.037216 
L 472.742134 90.020928 
L 474.327877 91.607306 
L 475.715403 92.666698 
L 476.904711 93.322349 
L 478.094018 93.736937 
L 479.283326 93.911448 
L 480.472633 93.854756 
L 481.661941 93.585102 
L 483.049466 93.028046 
L 484.436992 92.226476 
L 486.022735 91.017713 
L 487.608479 89.495422 
L 489.194222 87.663052 
L 490.978184 85.246512 
L 492.960363 82.136364 
L 494.942542 78.582049 
L 497.12294 74.176375 
L 499.501555 68.860678 
L 502.474824 61.638666 
L 506.042747 52.343073 
L 513.37681 32.998581 
L 515.755425 27.435413 
L 517.737605 23.348198 
L 519.521566 20.185794 
L 521.10731 17.80672 
L 522.693053 15.834347 
L 524.080579 14.436284 
L 525.468104 13.344848 
L 526.85563 12.558068 
L 528.243155 12.074464 
L 529.432463 11.877276 
L 530.62177 11.878755 
L 531.811078 12.072492 
L 533.198604 12.534405 
L 534.586129 13.249705 
L 535.973655 14.214447 
L 537.559398 15.620891 
L 539.145142 17.347272 
L 540.730885 19.392112 
L 542.514846 22.067954 
L 544.497026 25.489167 
L 546.677423 29.752865 
L 549.056038 34.929052 
L 551.831089 41.54619 
L 555.399012 50.700053 
L 563.724165 72.365696 
L 566.300998 78.304014 
L 568.481396 82.759478 
L 570.265357 85.934698 
L 572.049318 88.646034 
L 573.635062 90.649958 
L 575.220805 92.271829 
L 576.608331 93.38397 
L 577.995856 94.217582 
L 579.383382 94.783512 
L 580.770908 95.086196 
L 581.960215 95.138451 
L 583.347741 94.958516 
L 584.735266 94.517801 
L 586.122792 93.814826 
L 587.510317 92.847125 
L 588.897843 91.613221 
L 590.483586 89.879938 
L 592.06933 87.809957 
L 593.853291 85.097635 
L 595.83547 81.647337 
L 598.015868 77.370328 
L 600.394483 72.198086 
L 603.169534 65.60954 
L 606.737457 56.51365 
L 614.864392 35.557589 
L 617.441225 29.661666 
L 619.621622 25.226907 
L 621.603802 21.71696 
L 623.387763 19.027315 
L 624.973507 17.033743 
L 626.361032 15.603637 
L 627.748558 14.476214 
L 629.136083 13.649996 
L 630.325391 13.179703 
L 631.514698 12.927302 
L 632.704006 12.889837 
L 633.893314 13.062869 
L 635.082621 13.440977 
L 636.470147 14.137051 
L 637.857672 15.101793 
L 639.245198 16.328303 
L 640.830941 18.043346 
L 642.416685 20.085228 
L 644.200646 22.760084 
L 646.182825 26.18179 
L 648.363223 30.44746 
L 650.741838 35.627097 
L 653.516889 42.232897 
L 657.084812 51.333619 
L 665.806401 73.858902 
L 668.383234 79.728698 
L 670.563631 84.148175 
L 672.545811 87.644319 
L 674.329772 90.315724 
L 675.915515 92.281196 
L 677.303041 93.675315 
L 678.690566 94.758864 
L 679.879874 95.438176 
L 681.069182 95.888751 
L 682.258489 96.110588 
L 683.447797 96.116996 
L 684.637104 95.910442 
L 685.826412 95.500291 
L 687.213938 94.77316 
L 688.601463 93.787712 
L 689.988989 92.551343 
L 691.574732 90.838272 
L 693.160476 88.811179 
L 694.944437 86.161958 
L 696.926616 82.773774 
L 698.908796 78.943396 
L 701.287411 73.824887 
L 704.062462 67.268878 
L 707.233949 59.262057 
L 707.233949 59.262057 
" clip-path="url(#p8f0f3f11b5)" style="fill: none; stroke: #1f77b4; stroke-width: 1.5; stroke-linecap: square"/>
   </g>
   <g id="line2d_28">
    <path d="M 98.506676 53.297266 
L 104.453214 53.603697 
L 111.390842 54.199895 
L 123.482136 55.523086 
L 132.005507 56.340371 
L 138.348481 56.727845 
L 144.096801 56.857743 
L 149.845121 56.759691 
L 155.791659 56.431718 
L 162.729286 55.817675 
L 186.911874 53.456101 
L 192.858412 53.239047 
L 198.606732 53.25847 
L 204.355052 53.500962 
L 210.896244 54.008524 
L 219.816051 54.948465 
L 232.303781 56.243305 
L 238.844973 56.683182 
L 244.593293 56.851532 
L 250.143395 56.798537 
L 256.089933 56.514044 
L 262.829343 55.955904 
L 273.136675 54.839247 
L 283.24579 53.817596 
L 289.786982 53.384916 
L 295.535302 53.224208 
L 301.283622 53.290907 
L 307.23016 53.590091 
L 313.969569 54.160506 
L 325.069774 55.370817 
L 334.386017 56.292701 
L 340.72899 56.701817 
L 346.477311 56.854835 
L 352.027413 56.786608 
L 357.973951 56.487473 
L 364.71336 55.917058 
L 375.813565 54.706737 
L 385.129807 53.784863 
L 391.472781 53.375747 
L 397.221101 53.22268 
L 402.771204 53.290907 
L 403.167639 55.331872 
L 404.158729 58.430416 
L 404.753383 59.752266 
L 407.330216 66.025114 
L 407.92487 67.316696 
L 409.907049 71.596169 
L 411.096357 74.35976 
L 411.889228 76.198046 
L 413.078536 79.251009 
L 415.258933 84.3848 
L 419.223292 92.335422 
L 420.809035 94.864359 
L 421.998343 96.499541 
L 422.989433 97.631401 
L 423.782304 98.377757 
L 425.16983 99.369613 
L 425.962702 99.774342 
L 427.152009 100.230339 
L 428.143099 100.462035 
L 429.134189 100.568024 
L 429.92706 100.55077 
L 431.116368 100.32006 
L 432.107458 99.93505 
L 433.098547 99.381444 
L 434.287855 98.521705 
L 435.477163 97.489425 
L 436.864688 96.086925 
L 438.846867 93.702429 
L 440.829047 90.778623 
L 443.009444 86.942329 
L 445.982713 80.962109 
L 448.757764 74.679698 
L 451.136379 68.762577 
L 464.218763 34.934967 
L 466.795596 29.150949 
L 468.975993 24.791121 
L 470.759955 21.698227 
L 472.345698 19.35859 
L 473.931442 17.416288 
L 475.318967 16.049282 
L 476.706493 15.011087 
L 477.8958 14.397832 
L 479.085108 14.045851 
L 480.274415 13.951201 
L 481.463723 14.100571 
L 482.653031 14.472764 
L 484.040556 15.16933 
L 485.428082 16.138017 
L 486.815607 17.3734 
L 488.401351 19.103232 
L 489.987094 21.155467 
L 491.771056 23.822435 
L 493.753235 27.211604 
L 495.735414 31.041982 
L 497.915811 35.7321 
L 500.492645 41.810422 
L 503.664132 49.894639 
L 507.826708 61.188584 
L 513.37681 76.214807 
L 515.953643 82.562783 
L 518.134041 87.336705 
L 519.918002 90.733763 
L 521.503745 93.332701 
L 523.089489 95.519516 
L 524.477014 97.077795 
L 525.86454 98.306277 
L 527.053848 99.097001 
L 528.441373 99.719622 
L 529.630681 100.008502 
L 530.819988 100.075546 
L 532.009296 99.925683 
L 533.198604 99.56828 
L 534.586129 98.890939 
L 535.973655 97.940986 
L 537.36118 96.725321 
L 538.946924 95.017673 
L 540.532667 92.978256 
L 542.316628 90.296005 
L 544.10059 87.218393 
L 546.082769 83.369775 
L 548.263166 78.671277 
L 550.84 72.581617 
L 554.011487 64.4693 
L 559.165153 50.552162 
L 563.724165 38.493226 
L 566.499216 31.79672 
L 568.679614 27.083925 
L 570.661793 23.326507 
L 572.445754 20.433265 
L 574.031498 18.273563 
L 575.419023 16.708876 
L 576.806549 15.449337 
L 578.194074 14.488539 
L 579.5816 13.818592 
L 580.770908 13.473513 
L 581.960215 13.33696 
L 583.149523 13.406962 
L 584.33883 13.683518 
L 585.528138 14.164657 
L 586.915663 14.985452 
L 588.303189 16.085269 
L 589.690715 17.462627 
L 591.276458 19.369436 
L 592.862201 21.619844 
L 594.646163 24.533791 
L 596.628342 28.210362 
L 598.808739 32.733363 
L 601.385573 38.63175 
L 604.358842 46.028767 
L 608.521418 57.045515 
L 614.467956 72.765988 
L 617.243007 79.487635 
L 619.621622 84.666779 
L 621.603802 88.4661 
L 623.387763 91.423921 
L 624.973507 93.650667 
L 626.55925 95.481065 
L 627.946776 96.742575 
L 629.334301 97.686613 
L 630.523609 98.243176 
L 631.712916 98.567551 
L 632.902224 98.662201 
L 634.091532 98.532057 
L 635.280839 98.181555 
L 636.470147 97.616118 
L 637.857672 96.691306 
L 639.245198 95.488459 
L 640.830941 93.784262 
L 642.416685 91.739422 
L 644.200646 89.048298 
L 645.984608 85.961812 
L 647.966787 82.105799 
L 650.345402 76.948346 
L 652.922235 70.815798 
L 656.29194 62.182412 
L 667.590362 32.647093 
L 669.968977 27.33041 
L 671.951157 23.388128 
L 673.735118 20.287839 
L 675.320862 17.92947 
L 676.708387 16.199145 
L 678.095913 14.790236 
L 679.483438 13.710139 
L 680.672746 13.050052 
L 681.862053 12.632999 
L 683.051361 12.457502 
L 684.240669 12.511235 
L 685.429976 12.789271 
L 686.619284 13.283227 
L 688.006809 14.121769 
L 689.394335 15.232431 
L 690.980078 16.821766 
L 692.565822 18.740899 
L 694.349783 21.282653 
L 696.133745 24.216811 
L 698.115924 27.913101 
L 700.296321 32.468638 
L 702.873154 38.41928 
L 706.044641 46.369902 
L 707.233949 49.469698 
L 707.233949 49.469698 
" clip-path="url(#p8f0f3f11b5)" style="fill: none; stroke: #ff7f0e; stroke-width: 1.5; stroke-linecap: square"/>
   </g>
   <g id="line2d_29">
    <path d="M 98.506676 55.452985 
L 115.156983 53.732017 
L 121.499956 53.346958 
L 127.248276 53.219624 
L 132.996597 53.320288 
L 138.943135 53.650677 
L 145.880762 54.266643 
L 169.865132 56.614068 
L 175.81167 56.83625 
L 181.361772 56.82644 
L 187.110092 56.596173 
L 193.453066 56.117548 
L 201.976437 55.232988 
L 215.455257 53.828688 
L 221.996448 53.391227 
L 227.744769 53.225391 
L 233.493089 53.286865 
L 239.439627 53.581168 
L 246.179036 54.147541 
L 256.882805 55.312129 
L 266.595483 56.281905 
L 272.938457 56.695753 
L 278.686777 56.853898 
L 284.435097 56.784586 
L 290.381635 56.482987 
L 297.121045 55.91055 
L 308.221249 54.699446 
L 317.537492 53.77949 
L 323.880466 53.37274 
L 329.628786 53.222286 
L 335.178888 53.293027 
L 341.125426 53.594626 
L 347.864836 54.167063 
L 358.96504 55.378157 
L 368.281283 56.298123 
L 374.624257 56.704873 
L 380.372577 56.855328 
L 386.120897 56.778128 
L 392.067435 56.469283 
L 398.806845 55.890881 
L 419.223292 53.73877 
L 424.773394 53.093177 
L 428.539535 52.895792 
L 432.305676 52.917729 
L 437.261124 53.193496 
L 458.668661 54.600403 
L 464.416981 55.079442 
L 469.372429 55.724109 
L 480.472633 57.301712 
L 483.842338 57.464392 
L 487.806697 57.417659 
L 496.528286 56.996514 
L 510.403541 56.195734 
L 514.764336 55.72682 
L 518.728694 55.065388 
L 527.252066 53.520434 
L 530.819988 53.143312 
L 534.586129 52.975653 
L 539.541577 52.995864 
L 548.064949 53.288738 
L 559.759807 53.913528 
L 564.913473 54.388801 
L 569.868921 55.083591 
L 578.392292 56.335047 
L 582.554869 56.676971 
L 587.510317 56.846503 
L 593.853291 56.828116 
L 601.58379 56.569651 
L 612.485777 56.000912 
L 617.243007 55.536682 
L 622.991327 54.724755 
L 629.532519 53.85171 
L 634.091532 53.472912 
L 638.848762 53.304907 
L 645.191736 53.321866 
L 654.111543 53.571801 
L 663.03135 54.04387 
L 667.78858 54.502529 
L 673.140464 55.25875 
L 680.474528 56.281362 
L 684.835322 56.637484 
L 689.394335 56.772459 
L 696.133745 56.716063 
L 706.441077 56.420035 
L 707.233949 56.384442 
L 707.233949 56.384442 
" clip-path="url(#p8f0f3f11b5)" style="fill: none; stroke: #2ca02c; stroke-width: 1.5; stroke-linecap: square"/>
   </g>
   <g id="patch_3">
    <path d="M 68.070312 105.035294 
L 68.070312 7.2 
" style="fill: none; stroke: #000000; stroke-width: 0.8; stroke-linejoin: miter; stroke-linecap: square"/>
   </g>
   <g id="patch_4">
    <path d="M 737.670313 105.035294 
L 737.670313 7.2 
" style="fill: none; stroke: #000000; stroke-width: 0.8; stroke-linejoin: miter; stroke-linecap: square"/>
   </g>
   <g id="patch_5">
    <path d="M 68.070312 105.035294 
L 737.670313 105.035294 
" style="fill: none; stroke: #000000; stroke-width: 0.8; stroke-linejoin: miter; stroke-linecap: square"/>
   </g>
   <g id="patch_6">
    <path d="M 68.070312 7.2 
L 737.670313 7.2 
" style="fill: none; stroke: #000000; stroke-width: 0.8; stroke-linejoin: miter; stroke-linecap: square"/>
   </g>
  </g>
  <g id="axes_2">
   <g id="patch_7">
    <path d="M 68.070312 222.437647 
L 737.670313 222.437647 
L 737.670313 124.602353 
L 68.070312 124.602353 
z
" style="fill: #ffffff"/>
   </g>
   <g id="matplotlib.axis_3">
    <g id="xtick_10">
     <g id="line2d_30">
      <path d="M 98.506676 222.437647 
L 98.506676 124.602353 
" clip-path="url(#p5c167c5f10)" style="fill: none; stroke: #b0b0b0; stroke-width: 0.8; stroke-linecap: square"/>
     </g>
     <g id="line2d_31">
      <g>
       <use xlink:href="#m0094c5bdca" x="98.506676" y="222.437647" style="stroke: #000000; stroke-width: 0.8"/>
      </g>
     </g>
    </g>
    <g id="xtick_11">
     <g id="line2d_32">
      <path d="M 174.597585 222.437647 
L 174.597585 124.602353 
" clip-path="url(#p5c167c5f10)" style="fill: none; stroke: #b0b0b0; stroke-width: 0.8; stroke-linecap: square"/>
     </g>
     <g id="line2d_33">
      <g>
       <use xlink:href="#m0094c5bdca" x="174.597585" y="222.437647" style="stroke: #000000; stroke-width: 0.8"/>
      </g>
     </g>
    </g>
    <g id="xtick_12">
     <g id="line2d_34">
      <path d="M 250.688494 222.437647 
L 250.688494 124.602353 
" clip-path="url(#p5c167c5f10)" style="fill: none; stroke: #b0b0b0; stroke-width: 0.8; stroke-linecap: square"/>
     </g>
     <g id="line2d_35">
      <g>
       <use xlink:href="#m0094c5bdca" x="250.688494" y="222.437647" style="stroke: #000000; stroke-width: 0.8"/>
      </g>
     </g>
    </g>
    <g id="xtick_13">
     <g id="line2d_36">
      <path d="M 326.779403 222.437647 
L 326.779403 124.602353 
" clip-path="url(#p5c167c5f10)" style="fill: none; stroke: #b0b0b0; stroke-width: 0.8; stroke-linecap: square"/>
     </g>
     <g id="line2d_37">
      <g>
       <use xlink:href="#m0094c5bdca" x="326.779403" y="222.437647" style="stroke: #000000; stroke-width: 0.8"/>
      </g>
     </g>
    </g>
    <g id="xtick_14">
     <g id="line2d_38">
      <path d="M 402.870313 222.437647 
L 402.870313 124.602353 
" clip-path="url(#p5c167c5f10)" style="fill: none; stroke: #b0b0b0; stroke-width: 0.8; stroke-linecap: square"/>
     </g>
     <g id="line2d_39">
      <g>
       <use xlink:href="#m0094c5bdca" x="402.870313" y="222.437647" style="stroke: #000000; stroke-width: 0.8"/>
      </g>
     </g>
    </g>
    <g id="xtick_15">
     <g id="line2d_40">
      <path d="M 478.961222 222.437647 
L 478.961222 124.602353 
" clip-path="url(#p5c167c5f10)" style="fill: none; stroke: #b0b0b0; stroke-width: 0.8; stroke-linecap: square"/>
     </g>
     <g id="line2d_41">
      <g>
       <use xlink:href="#m0094c5bdca" x="478.961222" y="222.437647" style="stroke: #000000; stroke-width: 0.8"/>
      </g>
     </g>
    </g>
    <g id="xtick_16">
     <g id="line2d_42">
      <path d="M 555.052131 222.437647 
L 555.052131 124.602353 
" clip-path="url(#p5c167c5f10)" style="fill: none; stroke: #b0b0b0; stroke-width: 0.8; stroke-linecap: square"/>
     </g>
     <g id="line2d_43">
      <g>
       <use xlink:href="#m0094c5bdca" x="555.052131" y="222.437647" style="stroke: #000000; stroke-width: 0.8"/>
      </g>
     </g>
    </g>
    <g id="xtick_17">
     <g id="line2d_44">
      <path d="M 631.14304 222.437647 
L 631.14304 124.602353 
" clip-path="url(#p5c167c5f10)" style="fill: none; stroke: #b0b0b0; stroke-width: 0.8; stroke-linecap: square"/>
     </g>
     <g id="line2d_45">
      <g>
       <use xlink:href="#m0094c5bdca" x="631.14304" y="222.437647" style="stroke: #000000; stroke-width: 0.8"/>
      </g>
     </g>
    </g>
    <g id="xtick_18">
     <g id="line2d_46">
      <path d="M 707.233949 222.437647 
L 707.233949 124.602353 
" clip-path="url(#p5c167c5f10)" style="fill: none; stroke: #b0b0b0; stroke-width: 0.8; stroke-linecap: square"/>
     </g>
     <g id="line2d_47">
      <g>
       <use xlink:href="#m0094c5bdca" x="707.233949" y="222.437647" style="stroke: #000000; stroke-width: 0.8"/>
      </g>
     </g>
    </g>
    <g id="text_7">
     <!-- Time (s) -->
     <g transform="translate(382.541406 237.536085) scale(0.1 -0.1)">
      <use xlink:href="#DejaVuSans-54"/>
      <use xlink:href="#DejaVuSans-69" x="57.958984"/>
      <use xlink:href="#DejaVuSans-6d" x="85.742188"/>
      <use xlink:href="#DejaVuSans-65" x="183.154297"/>
      <use xlink:href="#DejaVuSans-20" x="244.677734"/>
      <use xlink:href="#DejaVuSans-28" x="276.464844"/>
      <use xlink:href="#DejaVuSans-73" x="315.478516"/>
      <use xlink:href="#DejaVuSans-29" x="367.578125"/>
     </g>
    </g>
   </g>
   <g id="matplotlib.axis_4">
    <g id="ytick_5">
     <g id="line2d_48">
      <path d="M 68.070312 221.738147 
L 737.670313 221.738147 
" clip-path="url(#p5c167c5f10)" style="fill: none; stroke: #b0b0b0; stroke-width: 0.8; stroke-linecap: square"/>
     </g>
     <g id="line2d_49">
      <g>
       <use xlink:href="#me15d772b92" x="68.070312" y="221.738147" style="stroke: #000000; stroke-width: 0.8"/>
      </g>
     </g>
     <g id="text_8">
      <!-- −10000 -->
      <g transform="translate(20.878125 225.537366) scale(0.1 -0.1)">
       <use xlink:href="#DejaVuSans-2212"/>
       <use xlink:href="#DejaVuSans-31" x="83.789062"/>
       <use xlink:href="#DejaVuSans-30" x="147.412109"/>
       <use xlink:href="#DejaVuSans-30" x="211.035156"/>
       <use xlink:href="#DejaVuSans-30" x="274.658203"/>
       <use xlink:href="#DejaVuSans-30" x="338.28125"/>
      </g>
     </g>
    </g>
    <g id="ytick_6">
     <g id="line2d_50">
      <path d="M 68.070312 197.089641 
L 737.670313 197.089641 
" clip-path="url(#p5c167c5f10)" style="fill: none; stroke: #b0b0b0; stroke-width: 0.8; stroke-linecap: square"/>
     </g>
     <g id="line2d_51">
      <g>
       <use xlink:href="#me15d772b92" x="68.070312" y="197.089641" style="stroke: #000000; stroke-width: 0.8"/>
      </g>
     </g>
     <g id="text_9">
      <!-- −5000 -->
      <g transform="translate(27.240625 200.88886) scale(0.1 -0.1)">
       <use xlink:href="#DejaVuSans-2212"/>
       <use xlink:href="#DejaVuSans-35" x="83.789062"/>
       <use xlink:href="#DejaVuSans-30" x="147.412109"/>
       <use xlink:href="#DejaVuSans-30" x="211.035156"/>
       <use xlink:href="#DejaVuSans-30" x="274.658203"/>
      </g>
     </g>
    </g>
    <g id="ytick_7">
     <g id="line2d_52">
      <path d="M 68.070312 172.441135 
L 737.670313 172.441135 
" clip-path="url(#p5c167c5f10)" style="fill: none; stroke: #b0b0b0; stroke-width: 0.8; stroke-linecap: square"/>
     </g>
     <g id="line2d_53">
      <g>
       <use xlink:href="#me15d772b92" x="68.070312" y="172.441135" style="stroke: #000000; stroke-width: 0.8"/>
      </g>
     </g>
     <g id="text_10">
      <!-- 0 -->
      <g transform="translate(54.707813 176.240354) scale(0.1 -0.1)">
       <use xlink:href="#DejaVuSans-30"/>
      </g>
     </g>
    </g>
    <g id="ytick_8">
     <g id="line2d_54">
      <path d="M 68.070312 147.792629 
L 737.670313 147.792629 
" clip-path="url(#p5c167c5f10)" style="fill: none; stroke: #b0b0b0; stroke-width: 0.8; stroke-linecap: square"/>
     </g>
     <g id="line2d_55">
      <g>
       <use xlink:href="#me15d772b92" x="68.070312" y="147.792629" style="stroke: #000000; stroke-width: 0.8"/>
      </g>
     </g>
     <g id="text_11">
      <!-- 5000 -->
      <g transform="translate(35.620312 151.591848) scale(0.1 -0.1)">
       <use xlink:href="#DejaVuSans-35"/>
       <use xlink:href="#DejaVuSans-30" x="63.623047"/>
       <use xlink:href="#DejaVuSans-30" x="127.246094"/>
       <use xlink:href="#DejaVuSans-30" x="190.869141"/>
      </g>
     </g>
    </g>
    <g id="text_12">
     <!-- Current (A) -->
     <g transform="translate(14.798437 201.2075) rotate(-90) scale(0.1 -0.1)">
      <use xlink:href="#DejaVuSans-43"/>
      <use xlink:href="#DejaVuSans-75" x="69.824219"/>
      <use xlink:href="#DejaVuSans-72" x="133.203125"/>
      <use xlink:href="#DejaVuSans-72" x="172.566406"/>
      <use xlink:href="#DejaVuSans-65" x="211.429688"/>
      <use xlink:href="#DejaVuSans-6e" x="272.953125"/>
      <use xlink:href="#DejaVuSans-74" x="336.332031"/>
      <use xlink:href="#DejaVuSans-20" x="375.541016"/>
      <use xlink:href="#DejaVuSans-28" x="407.328125"/>
      <use xlink:href="#DejaVuSans-41" x="446.341797"/>
      <use xlink:href="#DejaVuSans-29" x="514.75"/>
     </g>
    </g>
   </g>
   <g id="line2d_56">
    <path d="M 98.506676 173.768457 
L 104.84965 174.143706 
L 110.59797 174.260688 
L 116.34629 174.149621 
L 122.292828 173.809817 
L 129.428674 173.165801 
L 152.223736 170.908392 
L 158.170274 170.65821 
L 163.918594 170.643322 
L 169.666914 170.853771 
L 176.009888 171.314994 
L 184.335041 172.165752 
L 199.003168 173.689631 
L 205.346142 174.101113 
L 211.094462 174.256744 
L 216.842782 174.18477 
L 222.78932 173.880756 
L 229.52873 173.306297 
L 240.628934 172.094454 
L 249.945177 171.176469 
L 256.288151 170.772086 
L 262.036471 170.624195 
L 267.586573 170.69745 
L 273.533111 171.001465 
L 280.272521 171.575923 
L 291.570943 172.809674 
L 300.688968 173.7058 
L 307.031942 174.110135 
L 312.780262 174.258075 
L 318.528582 174.178263 
L 324.47512 173.867002 
L 331.412748 173.266761 
L 344.098695 171.878409 
L 352.423849 171.098629 
L 358.568604 170.738564 
L 364.316925 170.621582 
L 370.065245 170.732648 
L 376.011783 171.072403 
L 383.147628 171.71642 
L 402.771204 173.753076 
L 403.167639 171.75566 
L 404.158729 168.772155 
L 404.753383 167.520702 
L 407.330216 161.535157 
L 407.92487 160.299281 
L 409.907049 156.189389 
L 411.096357 153.523899 
L 411.889228 151.754137 
L 413.078536 148.81357 
L 415.258933 143.901616 
L 418.628638 137.493004 
L 421.007253 133.848476 
L 421.998343 132.63922 
L 422.989433 131.622223 
L 423.782304 130.957699 
L 425.16983 130.087607 
L 425.962702 129.738091 
L 427.152009 129.346673 
L 428.143099 129.150964 
L 429.134189 129.065187 
L 430.125278 129.111033 
L 431.116368 129.310193 
L 432.107458 129.672033 
L 433.296765 130.306486 
L 434.486073 131.134182 
L 435.873598 132.310409 
L 438.053996 134.561311 
L 439.837957 136.822565 
L 441.820136 139.872571 
L 444.000534 143.781331 
L 446.973803 149.80444 
L 449.550636 155.70332 
L 452.127469 162.108481 
L 463.029455 189.796641 
L 465.606288 195.557983 
L 467.786686 199.926191 
L 469.570647 203.056058 
L 471.15639 205.439569 
L 472.742134 207.423281 
L 474.327877 209.009659 
L 475.715403 210.069051 
L 476.904711 210.724702 
L 478.094018 211.139289 
L 479.283326 211.313801 
L 480.472633 211.257109 
L 481.661941 210.987455 
L 483.049466 210.430398 
L 484.436992 209.628829 
L 486.022735 208.420066 
L 487.608479 206.897775 
L 489.194222 205.065405 
L 490.978184 202.648865 
L 492.960363 199.538717 
L 494.942542 195.984402 
L 497.12294 191.578728 
L 499.501555 186.263031 
L 502.474824 179.041019 
L 506.042747 169.745426 
L 513.37681 150.400934 
L 515.755425 144.837766 
L 517.737605 140.750551 
L 519.521566 137.588147 
L 521.10731 135.209073 
L 522.693053 133.2367 
L 524.080579 131.838637 
L 525.468104 130.747201 
L 526.85563 129.960421 
L 528.243155 129.476817 
L 529.432463 129.279629 
L 530.62177 129.281108 
L 531.811078 129.474845 
L 533.198604 129.936758 
L 534.586129 130.652058 
L 535.973655 131.6168 
L 537.559398 133.023244 
L 539.145142 134.749625 
L 540.730885 136.794465 
L 542.514846 139.470307 
L 544.497026 142.89152 
L 546.677423 147.155218 
L 549.056038 152.331405 
L 551.831089 158.948543 
L 555.399012 168.102406 
L 563.724165 189.768049 
L 566.300998 195.706367 
L 568.481396 200.161831 
L 570.265357 203.337051 
L 572.049318 206.048387 
L 573.635062 208.052311 
L 575.220805 209.674182 
L 576.608331 210.786323 
L 577.995856 211.619935 
L 579.383382 212.185865 
L 580.770908 212.488549 
L 581.960215 212.540804 
L 583.347741 212.360869 
L 584.735266 211.920154 
L 586.122792 211.217179 
L 587.510317 210.249478 
L 588.897843 209.015574 
L 590.483586 207.282291 
L 592.06933 205.21231 
L 593.853291 202.499988 
L 595.83547 199.04969 
L 598.015868 194.772681 
L 600.394483 189.600439 
L 603.169534 183.011893 
L 606.737457 173.916003 
L 614.864392 152.959942 
L 617.441225 147.064019 
L 619.621622 142.62926 
L 621.603802 139.119312 
L 623.387763 136.429667 
L 624.973507 134.436096 
L 626.361032 133.00599 
L 627.748558 131.878567 
L 629.136083 131.052349 
L 630.325391 130.582056 
L 631.514698 130.329655 
L 632.704006 130.292189 
L 633.893314 130.465222 
L 635.082621 130.84333 
L 636.470147 131.539404 
L 637.857672 132.504146 
L 639.245198 133.730656 
L 640.830941 135.445699 
L 642.416685 137.487581 
L 644.200646 140.162437 
L 646.182825 143.584143 
L 648.363223 147.849813 
L 650.741838 153.02945 
L 653.516889 159.63525 
L 657.084812 168.735971 
L 665.806401 191.261255 
L 668.383234 197.13105 
L 670.563631 201.550528 
L 672.545811 205.046672 
L 674.329772 207.718077 
L 675.915515 209.683549 
L 677.303041 211.077668 
L 678.690566 212.161217 
L 679.879874 212.840529 
L 681.069182 213.291104 
L 682.258489 213.512941 
L 683.447797 213.519349 
L 684.637104 213.312795 
L 685.826412 212.902644 
L 687.213938 212.175513 
L 688.601463 211.190065 
L 689.988989 209.953696 
L 691.574732 208.240625 
L 693.160476 206.213532 
L 694.944437 203.564311 
L 696.926616 200.176127 
L 698.908796 196.345749 
L 701.287411 191.22724 
L 704.062462 184.671231 
L 707.233949 176.66441 
L 707.233949 176.66441 
" clip-path="url(#p5c167c5f10)" style="fill: none; stroke: #1f77b4; stroke-width: 1.5; stroke-linecap: square"/>
   </g>
   <g id="line2d_57">
    <path d="M 98.506676 170.699619 
L 104.453214 171.00605 
L 111.390842 171.602248 
L 123.482136 172.925439 
L 132.005507 173.742724 
L 138.348481 174.130198 
L 144.096801 174.260096 
L 149.845121 174.162044 
L 155.791659 173.834071 
L 162.729286 173.220028 
L 186.911874 170.858454 
L 192.858412 170.6414 
L 198.606732 170.660823 
L 204.355052 170.903315 
L 210.896244 171.410877 
L 219.816051 172.350818 
L 232.303781 173.645658 
L 238.844973 174.085535 
L 244.593293 174.253885 
L 250.143395 174.20089 
L 256.089933 173.916397 
L 262.829343 173.358257 
L 273.136675 172.2416 
L 283.24579 171.219949 
L 289.786982 170.787269 
L 295.535302 170.626561 
L 301.283622 170.69326 
L 307.23016 170.992444 
L 313.969569 171.562859 
L 325.069774 172.77317 
L 334.386017 173.695054 
L 340.72899 174.10417 
L 346.477311 174.257188 
L 352.027413 174.18896 
L 357.973951 173.889826 
L 364.71336 173.31941 
L 375.813565 172.10909 
L 385.129807 171.187216 
L 391.472781 170.7781 
L 397.221101 170.625033 
L 402.771204 170.69326 
L 403.167639 172.734225 
L 404.158729 175.832769 
L 404.753383 177.154619 
L 407.330216 183.427467 
L 407.92487 184.719049 
L 409.907049 188.998522 
L 411.096357 191.762113 
L 411.889228 193.600398 
L 413.078536 196.653362 
L 415.258933 201.787153 
L 419.223292 209.737775 
L 420.809035 212.266712 
L 421.998343 213.901894 
L 422.989433 215.033753 
L 423.782304 215.78011 
L 425.16983 216.771966 
L 425.962702 217.176695 
L 427.152009 217.632692 
L 428.143099 217.864388 
L 429.134189 217.970376 
L 429.92706 217.953123 
L 431.116368 217.722412 
L 432.107458 217.337403 
L 433.098547 216.783797 
L 434.287855 215.924057 
L 435.477163 214.891778 
L 436.864688 213.489278 
L 438.846867 211.104782 
L 440.829047 208.180976 
L 443.009444 204.344682 
L 445.982713 198.364462 
L 448.757764 192.08205 
L 451.136379 186.16493 
L 464.218763 152.33732 
L 466.795596 146.553302 
L 468.975993 142.193474 
L 470.759955 139.10058 
L 472.345698 136.760943 
L 473.931442 134.818641 
L 475.318967 133.451635 
L 476.706493 132.41344 
L 477.8958 131.800185 
L 479.085108 131.448204 
L 480.274415 131.353554 
L 481.463723 131.502924 
L 482.653031 131.875117 
L 484.040556 132.571683 
L 485.428082 133.54037 
L 486.815607 134.775753 
L 488.401351 136.505585 
L 489.987094 138.557819 
L 491.771056 141.224788 
L 493.753235 144.613957 
L 495.735414 148.444335 
L 497.915811 153.134453 
L 500.492645 159.212775 
L 503.664132 167.296992 
L 507.826708 178.590937 
L 513.37681 193.617159 
L 515.953643 199.965136 
L 518.134041 204.739058 
L 519.918002 208.136115 
L 521.503745 210.735054 
L 523.089489 212.921869 
L 524.477014 214.480148 
L 525.86454 215.70863 
L 527.053848 216.499354 
L 528.441373 217.121975 
L 529.630681 217.410855 
L 530.819988 217.477899 
L 532.009296 217.328036 
L 533.198604 216.970633 
L 534.586129 216.293292 
L 535.973655 215.343339 
L 537.36118 214.127674 
L 538.946924 212.420026 
L 540.532667 210.380608 
L 542.316628 207.698358 
L 544.10059 204.620746 
L 546.082769 200.772128 
L 548.263166 196.07363 
L 550.84 189.98397 
L 554.011487 181.871653 
L 559.165153 167.954515 
L 563.724165 155.895579 
L 566.499216 149.199073 
L 568.679614 144.486278 
L 570.661793 140.72886 
L 572.445754 137.835618 
L 574.031498 135.675916 
L 575.419023 134.111229 
L 576.806549 132.85169 
L 578.194074 131.890892 
L 579.5816 131.220945 
L 580.770908 130.875866 
L 581.960215 130.739313 
L 583.149523 130.809315 
L 584.33883 131.085871 
L 585.528138 131.56701 
L 586.915663 132.387805 
L 588.303189 133.487622 
L 589.690715 134.86498 
L 591.276458 136.771789 
L 592.862201 139.022197 
L 594.646163 141.936144 
L 596.628342 145.612715 
L 598.808739 150.135716 
L 601.385573 156.034103 
L 604.358842 163.43112 
L 608.521418 174.447868 
L 614.467956 190.16834 
L 617.243007 196.889988 
L 619.621622 202.069132 
L 621.603802 205.868453 
L 623.387763 208.826274 
L 624.973507 211.05302 
L 626.55925 212.883418 
L 627.946776 214.144928 
L 629.334301 215.088966 
L 630.523609 215.645529 
L 631.712916 215.969904 
L 632.902224 216.064554 
L 634.091532 215.93441 
L 635.280839 215.583908 
L 636.470147 215.018471 
L 637.857672 214.093659 
L 639.245198 212.890812 
L 640.830941 211.186615 
L 642.416685 209.141775 
L 644.200646 206.450651 
L 645.984608 203.364165 
L 647.966787 199.508152 
L 650.345402 194.350699 
L 652.922235 188.218151 
L 656.29194 179.584765 
L 667.590362 150.049446 
L 669.968977 144.732763 
L 671.951157 140.790481 
L 673.735118 137.690192 
L 675.320862 135.331823 
L 676.708387 133.601498 
L 678.095913 132.192589 
L 679.483438 131.112492 
L 680.672746 130.452405 
L 681.862053 130.035352 
L 683.051361 129.859855 
L 684.240669 129.913588 
L 685.429976 130.191624 
L 686.619284 130.68558 
L 688.006809 131.524122 
L 689.394335 132.634783 
L 690.980078 134.224119 
L 692.565822 136.143252 
L 694.349783 138.685006 
L 696.133745 141.619164 
L 698.115924 145.315454 
L 700.296321 149.870991 
L 702.873154 155.821633 
L 706.044641 163.772255 
L 707.233949 166.872051 
L 707.233949 166.872051 
" clip-path="url(#p5c167c5f10)" style="fill: none; stroke: #ff7f0e; stroke-width: 1.5; stroke-linecap: square"/>
   </g>
   <g id="line2d_58">
    <path d="M 98.506676 172.855338 
L 115.156983 171.13437 
L 121.499956 170.749311 
L 127.248276 170.621977 
L 132.996597 170.722641 
L 138.943135 171.05303 
L 145.880762 171.668996 
L 169.865132 174.016421 
L 175.81167 174.238603 
L 181.361772 174.228792 
L 187.110092 173.998526 
L 193.453066 173.519901 
L 201.976437 172.63534 
L 215.455257 171.231041 
L 221.996448 170.793579 
L 227.744769 170.627744 
L 233.493089 170.689218 
L 239.439627 170.983521 
L 246.179036 171.549894 
L 256.882805 172.714482 
L 266.595483 173.684258 
L 272.938457 174.098106 
L 278.686777 174.256251 
L 284.435097 174.186939 
L 290.381635 173.88534 
L 297.121045 173.312903 
L 308.221249 172.101799 
L 317.537492 171.181843 
L 323.880466 170.775093 
L 329.628786 170.624639 
L 335.178888 170.69538 
L 341.125426 170.996979 
L 347.864836 171.569416 
L 358.96504 172.78051 
L 368.281283 173.700476 
L 374.624257 174.107226 
L 380.372577 174.25768 
L 386.120897 174.180481 
L 392.067435 173.871636 
L 398.806845 173.293234 
L 419.223292 171.141123 
L 424.773394 170.49553 
L 428.539535 170.298144 
L 432.305676 170.320082 
L 437.261124 170.595849 
L 458.668661 172.002756 
L 464.416981 172.481795 
L 469.372429 173.126462 
L 480.472633 174.704065 
L 483.842338 174.866745 
L 487.806697 174.820012 
L 496.528286 174.398867 
L 510.403541 173.598086 
L 514.764336 173.129173 
L 518.728694 172.46774 
L 527.252066 170.922787 
L 530.819988 170.545665 
L 534.586129 170.378006 
L 539.541577 170.398217 
L 548.064949 170.691091 
L 559.759807 171.315881 
L 564.913473 171.791154 
L 569.868921 172.485944 
L 578.392292 173.7374 
L 582.554869 174.079324 
L 587.510317 174.248856 
L 593.853291 174.230469 
L 601.58379 173.972004 
L 612.485777 173.403265 
L 617.243007 172.939035 
L 622.991327 172.127108 
L 629.532519 171.254063 
L 634.091532 170.875265 
L 638.848762 170.70726 
L 645.191736 170.724219 
L 654.111543 170.974154 
L 663.03135 171.446223 
L 667.78858 171.904882 
L 673.140464 172.661103 
L 680.474528 173.683715 
L 684.835322 174.039837 
L 689.394335 174.174812 
L 696.133745 174.118416 
L 706.441077 173.822388 
L 707.233949 173.786795 
L 707.233949 173.786795 
" clip-path="url(#p5c167c5f10)" style="fill: none; stroke: #2ca02c; stroke-width: 1.5; stroke-linecap: square"/>
   </g>
   <g id="patch_8">
    <path d="M 68.070312 222.437647 
L 68.070312 124.602353 
" style="fill: none; stroke: #000000; stroke-width: 0.8; stroke-linejoin: miter; stroke-linecap: square"/>
   </g>
   <g id="patch_9">
    <path d="M 737.670313 222.437647 
L 737.670313 124.602353 
" style="fill: none; stroke: #000000; stroke-width: 0.8; stroke-linejoin: miter; stroke-linecap: square"/>
   </g>
   <g id="patch_10">
    <path d="M 68.070312 222.437647 
L 737.670313 222.437647 
" style="fill: none; stroke: #000000; stroke-width: 0.8; stroke-linejoin: miter; stroke-linecap: square"/>
   </g>
   <g id="patch_11">
    <path d="M 68.070312 124.602353 
L 737.670313 124.602353 
" style="fill: none; stroke: #000000; stroke-width: 0.8; stroke-linejoin: miter; stroke-linecap: square"/>
   </g>
  </g>
  <g id="axes_3">
   <g id="patch_12">
    <path d="M 68.070312 339.84 
L 737.670313 339.84 
L 737.670313 242.004706 
L 68.070312 242.004706 
z
" style="fill: #ffffff"/>
   </g>
   <g id="matplotlib.axis_5">
    <g id="xtick_19">
     <g id="line2d_59">
      <path d="M 98.506676 339.84 
L 98.506676 242.004706 
" clip-path="url(#p70d2d64f27)" style="fill: none; stroke: #b0b0b0; stroke-width: 0.8; stroke-linecap: square"/>
     </g>
     <g id="line2d_60">
      <g>
       <use xlink:href="#m0094c5bdca" x="98.506676" y="339.84" style="stroke: #000000; stroke-width: 0.8"/>
      </g>
     </g>
     <g id="text_13">
      <!-- 0.000 -->
      <g transform="translate(84.192614 354.438437) scale(0.1 -0.1)">
       <defs>
        <path id="DejaVuSans-2e" d="M 684 794 
L 1344 794 
L 1344 0 
L 684 0 
L 684 794 
z
" transform="scale(0.015625)"/>
       </defs>
       <use xlink:href="#DejaVuSans-30"/>
       <use xlink:href="#DejaVuSans-2e" x="63.623047"/>
       <use xlink:href="#DejaVuSans-30" x="95.410156"/>
       <use xlink:href="#DejaVuSans-30" x="159.033203"/>
       <use xlink:href="#DejaVuSans-30" x="222.65625"/>
      </g>
     </g>
    </g>
    <g id="xtick_20">
     <g id="line2d_61">
      <path d="M 174.597585 339.84 
L 174.597585 242.004706 
" clip-path="url(#p70d2d64f27)" style="fill: none; stroke: #b0b0b0; stroke-width: 0.8; stroke-linecap: square"/>
     </g>
     <g id="line2d_62">
      <g>
       <use xlink:href="#m0094c5bdca" x="174.597585" y="339.84" style="stroke: #000000; stroke-width: 0.8"/>
      </g>
     </g>
     <g id="text_14">
      <!-- 0.025 -->
      <g transform="translate(160.283523 354.438437) scale(0.1 -0.1)">
       <defs>
        <path id="DejaVuSans-32" d="M 1228 531 
L 3431 531 
L 3431 0 
L 469 0 
L 469 531 
Q 828 903 1448 1529 
Q 2069 2156 2228 2338 
Q 2531 2678 2651 2914 
Q 2772 3150 2772 3378 
Q 2772 3750 2511 3984 
Q 2250 4219 1831 4219 
Q 1534 4219 1204 4116 
Q 875 4013 500 3803 
L 500 4441 
Q 881 4594 1212 4672 
Q 1544 4750 1819 4750 
Q 2544 4750 2975 4387 
Q 3406 4025 3406 3419 
Q 3406 3131 3298 2873 
Q 3191 2616 2906 2266 
Q 2828 2175 2409 1742 
Q 1991 1309 1228 531 
z
" transform="scale(0.015625)"/>
       </defs>
       <use xlink:href="#DejaVuSans-30"/>
       <use xlink:href="#DejaVuSans-2e" x="63.623047"/>
       <use xlink:href="#DejaVuSans-30" x="95.410156"/>
       <use xlink:href="#DejaVuSans-32" x="159.033203"/>
       <use xlink:href="#DejaVuSans-35" x="222.65625"/>
      </g>
     </g>
    </g>
    <g id="xtick_21">
     <g id="line2d_63">
      <path d="M 250.688494 339.84 
L 250.688494 242.004706 
" clip-path="url(#p70d2d64f27)" style="fill: none; stroke: #b0b0b0; stroke-width: 0.8; stroke-linecap: square"/>
     </g>
     <g id="line2d_64">
      <g>
       <use xlink:href="#m0094c5bdca" x="250.688494" y="339.84" style="stroke: #000000; stroke-width: 0.8"/>
      </g>
     </g>
     <g id="text_15">
      <!-- 0.050 -->
      <g transform="translate(236.374432 354.438437) scale(0.1 -0.1)">
       <use xlink:href="#DejaVuSans-30"/>
       <use xlink:href="#DejaVuSans-2e" x="63.623047"/>
       <use xlink:href="#DejaVuSans-30" x="95.410156"/>
       <use xlink:href="#DejaVuSans-35" x="159.033203"/>
       <use xlink:href="#DejaVuSans-30" x="222.65625"/>
      </g>
     </g>
    </g>
    <g id="xtick_22">
     <g id="line2d_65">
      <path d="M 326.779403 339.84 
L 326.779403 242.004706 
" clip-path="url(#p70d2d64f27)" style="fill: none; stroke: #b0b0b0; stroke-width: 0.8; stroke-linecap: square"/>
     </g>
     <g id="line2d_66">
      <g>
       <use xlink:href="#m0094c5bdca" x="326.779403" y="339.84" style="stroke: #000000; stroke-width: 0.8"/>
      </g>
     </g>
     <g id="text_16">
      <!-- 0.075 -->
      <g transform="translate(312.465341 354.438437) scale(0.1 -0.1)">
       <defs>
        <path id="DejaVuSans-37" d="M 525 4666 
L 3525 4666 
L 3525 4397 
L 1831 0 
L 1172 0 
L 2766 4134 
L 525 4134 
L 525 4666 
z
" transform="scale(0.015625)"/>
       </defs>
       <use xlink:href="#DejaVuSans-30"/>
       <use xlink:href="#DejaVuSans-2e" x="63.623047"/>
       <use xlink:href="#DejaVuSans-30" x="95.410156"/>
       <use xlink:href="#DejaVuSans-37" x="159.033203"/>
       <use xlink:href="#DejaVuSans-35" x="222.65625"/>
      </g>
     </g>
    </g>
    <g id="xtick_23">
     <g id="line2d_67">
      <path d="M 402.870313 339.84 
L 402.870313 242.004706 
" clip-path="url(#p70d2d64f27)" style="fill: none; stroke: #b0b0b0; stroke-width: 0.8; stroke-linecap: square"/>
     </g>
     <g id="line2d_68">
      <g>
       <use xlink:href="#m0094c5bdca" x="402.870313" y="339.84" style="stroke: #000000; stroke-width: 0.8"/>
      </g>
     </g>
     <g id="text_17">
      <!-- 0.100 -->
      <g transform="translate(388.55625 354.438437) scale(0.1 -0.1)">
       <use xlink:href="#DejaVuSans-30"/>
       <use xlink:href="#DejaVuSans-2e" x="63.623047"/>
       <use xlink:href="#DejaVuSans-31" x="95.410156"/>
       <use xlink:href="#DejaVuSans-30" x="159.033203"/>
       <use xlink:href="#DejaVuSans-30" x="222.65625"/>
      </g>
     </g>
    </g>
    <g id="xtick_24">
     <g id="line2d_69">
      <path d="M 478.961222 339.84 
L 478.961222 242.004706 
" clip-path="url(#p70d2d64f27)" style="fill: none; stroke: #b0b0b0; stroke-width: 0.8; stroke-linecap: square"/>
     </g>
     <g id="line2d_70">
      <g>
       <use xlink:href="#m0094c5bdca" x="478.961222" y="339.84" style="stroke: #000000; stroke-width: 0.8"/>
      </g>
     </g>
     <g id="text_18">
      <!-- 0.125 -->
      <g transform="translate(464.647159 354.438437) scale(0.1 -0.1)">
       <use xlink:href="#DejaVuSans-30"/>
       <use xlink:href="#DejaVuSans-2e" x="63.623047"/>
       <use xlink:href="#DejaVuSans-31" x="95.410156"/>
       <use xlink:href="#DejaVuSans-32" x="159.033203"/>
       <use xlink:href="#DejaVuSans-35" x="222.65625"/>
      </g>
     </g>
    </g>
    <g id="xtick_25">
     <g id="line2d_71">
      <path d="M 555.052131 339.84 
L 555.052131 242.004706 
" clip-path="url(#p70d2d64f27)" style="fill: none; stroke: #b0b0b0; stroke-width: 0.8; stroke-linecap: square"/>
     </g>
     <g id="line2d_72">
      <g>
       <use xlink:href="#m0094c5bdca" x="555.052131" y="339.84" style="stroke: #000000; stroke-width: 0.8"/>
      </g>
     </g>
     <g id="text_19">
      <!-- 0.150 -->
      <g transform="translate(540.738068 354.438437) scale(0.1 -0.1)">
       <use xlink:href="#DejaVuSans-30"/>
       <use xlink:href="#DejaVuSans-2e" x="63.623047"/>
       <use xlink:href="#DejaVuSans-31" x="95.410156"/>
       <use xlink:href="#DejaVuSans-35" x="159.033203"/>
       <use xlink:href="#DejaVuSans-30" x="222.65625"/>
      </g>
     </g>
    </g>
    <g id="xtick_26">
     <g id="line2d_73">
      <path d="M 631.14304 339.84 
L 631.14304 242.004706 
" clip-path="url(#p70d2d64f27)" style="fill: none; stroke: #b0b0b0; stroke-width: 0.8; stroke-linecap: square"/>
     </g>
     <g id="line2d_74">
      <g>
       <use xlink:href="#m0094c5bdca" x="631.14304" y="339.84" style="stroke: #000000; stroke-width: 0.8"/>
      </g>
     </g>
     <g id="text_20">
      <!-- 0.175 -->
      <g transform="translate(616.828977 354.438437) scale(0.1 -0.1)">
       <use xlink:href="#DejaVuSans-30"/>
       <use xlink:href="#DejaVuSans-2e" x="63.623047"/>
       <use xlink:href="#DejaVuSans-31" x="95.410156"/>
       <use xlink:href="#DejaVuSans-37" x="159.033203"/>
       <use xlink:href="#DejaVuSans-35" x="222.65625"/>
      </g>
     </g>
    </g>
    <g id="xtick_27">
     <g id="line2d_75">
      <path d="M 707.233949 339.84 
L 707.233949 242.004706 
" clip-path="url(#p70d2d64f27)" style="fill: none; stroke: #b0b0b0; stroke-width: 0.8; stroke-linecap: square"/>
     </g>
     <g id="line2d_76">
      <g>
       <use xlink:href="#m0094c5bdca" x="707.233949" y="339.84" style="stroke: #000000; stroke-width: 0.8"/>
      </g>
     </g>
     <g id="text_21">
      <!-- 0.200 -->
      <g transform="translate(692.919886 354.438437) scale(0.1 -0.1)">
       <use xlink:href="#DejaVuSans-30"/>
       <use xlink:href="#DejaVuSans-2e" x="63.623047"/>
       <use xlink:href="#DejaVuSans-32" x="95.410156"/>
       <use xlink:href="#DejaVuSans-30" x="159.033203"/>
       <use xlink:href="#DejaVuSans-30" x="222.65625"/>
      </g>
     </g>
    </g>
    <g id="text_22">
     <!-- Time (s) -->
     <g transform="translate(382.541406 368.116562) scale(0.1 -0.1)">
      <use xlink:href="#DejaVuSans-54"/>
      <use xlink:href="#DejaVuSans-69" x="57.958984"/>
      <use xlink:href="#DejaVuSans-6d" x="85.742188"/>
      <use xlink:href="#DejaVuSans-65" x="183.154297"/>
      <use xlink:href="#DejaVuSans-20" x="244.677734"/>
      <use xlink:href="#DejaVuSans-28" x="276.464844"/>
      <use xlink:href="#DejaVuSans-73" x="315.478516"/>
      <use xlink:href="#DejaVuSans-29" x="367.578125"/>
     </g>
    </g>
   </g>
   <g id="matplotlib.axis_6">
    <g id="ytick_9">
     <g id="line2d_77">
      <path d="M 68.070312 339.1405 
L 737.670313 339.1405 
" clip-path="url(#p70d2d64f27)" style="fill: none; stroke: #b0b0b0; stroke-width: 0.8; stroke-linecap: square"/>
     </g>
     <g id="line2d_78">
      <g>
       <use xlink:href="#me15d772b92" x="68.070312" y="339.1405" style="stroke: #000000; stroke-width: 0.8"/>
      </g>
     </g>
     <g id="text_23">
      <!-- −10000 -->
      <g transform="translate(20.878125 342.939719) scale(0.1 -0.1)">
       <use xlink:href="#DejaVuSans-2212"/>
       <use xlink:href="#DejaVuSans-31" x="83.789062"/>
       <use xlink:href="#DejaVuSans-30" x="147.412109"/>
       <use xlink:href="#DejaVuSans-30" x="211.035156"/>
       <use xlink:href="#DejaVuSans-30" x="274.658203"/>
       <use xlink:href="#DejaVuSans-30" x="338.28125"/>
      </g>
     </g>
    </g>
    <g id="ytick_10">
     <g id="line2d_79">
      <path d="M 68.070312 314.491994 
L 737.670313 314.491994 
" clip-path="url(#p70d2d64f27)" style="fill: none; stroke: #b0b0b0; stroke-width: 0.8; stroke-linecap: square"/>
     </g>
     <g id="line2d_80">
      <g>
       <use xlink:href="#me15d772b92" x="68.070312" y="314.491994" style="stroke: #000000; stroke-width: 0.8"/>
      </g>
     </g>
     <g id="text_24">
      <!-- −5000 -->
      <g transform="translate(27.240625 318.291213) scale(0.1 -0.1)">
       <use xlink:href="#DejaVuSans-2212"/>
       <use xlink:href="#DejaVuSans-35" x="83.789062"/>
       <use xlink:href="#DejaVuSans-30" x="147.412109"/>
       <use xlink:href="#DejaVuSans-30" x="211.035156"/>
       <use xlink:href="#DejaVuSans-30" x="274.658203"/>
      </g>
     </g>
    </g>
    <g id="ytick_11">
     <g id="line2d_81">
      <path d="M 68.070312 289.843488 
L 737.670313 289.843488 
" clip-path="url(#p70d2d64f27)" style="fill: none; stroke: #b0b0b0; stroke-width: 0.8; stroke-linecap: square"/>
     </g>
     <g id="line2d_82">
      <g>
       <use xlink:href="#me15d772b92" x="68.070312" y="289.843488" style="stroke: #000000; stroke-width: 0.8"/>
      </g>
     </g>
     <g id="text_25">
      <!-- 0 -->
      <g transform="translate(54.707813 293.642707) scale(0.1 -0.1)">
       <use xlink:href="#DejaVuSans-30"/>
      </g>
     </g>
    </g>
    <g id="ytick_12">
     <g id="line2d_83">
      <path d="M 68.070312 265.194982 
L 737.670313 265.194982 
" clip-path="url(#p70d2d64f27)" style="fill: none; stroke: #b0b0b0; stroke-width: 0.8; stroke-linecap: square"/>
     </g>
     <g id="line2d_84">
      <g>
       <use xlink:href="#me15d772b92" x="68.070312" y="265.194982" style="stroke: #000000; stroke-width: 0.8"/>
      </g>
     </g>
     <g id="text_26">
      <!-- 5000 -->
      <g transform="translate(35.620312 268.9942) scale(0.1 -0.1)">
       <use xlink:href="#DejaVuSans-35"/>
       <use xlink:href="#DejaVuSans-30" x="63.623047"/>
       <use xlink:href="#DejaVuSans-30" x="127.246094"/>
       <use xlink:href="#DejaVuSans-30" x="190.869141"/>
      </g>
     </g>
    </g>
    <g id="text_27">
     <!-- Current (A) -->
     <g transform="translate(14.798437 318.609853) rotate(-90) scale(0.1 -0.1)">
      <use xlink:href="#DejaVuSans-43"/>
      <use xlink:href="#DejaVuSans-75" x="69.824219"/>
      <use xlink:href="#DejaVuSans-72" x="133.203125"/>
      <use xlink:href="#DejaVuSans-72" x="172.566406"/>
      <use xlink:href="#DejaVuSans-65" x="211.429688"/>
      <use xlink:href="#DejaVuSans-6e" x="272.953125"/>
      <use xlink:href="#DejaVuSans-74" x="336.332031"/>
      <use xlink:href="#DejaVuSans-20" x="375.541016"/>
      <use xlink:href="#DejaVuSans-28" x="407.328125"/>
      <use xlink:href="#DejaVuSans-41" x="446.341797"/>
      <use xlink:href="#DejaVuSans-29" x="514.75"/>
     </g>
    </g>
   </g>
   <g id="line2d_85">
    <path d="M 98.506676 291.17081 
L 104.84965 291.546059 
L 110.59797 291.663041 
L 116.34629 291.551974 
L 122.292828 291.21217 
L 129.428674 290.568154 
L 152.223736 288.310745 
L 158.170274 288.060563 
L 163.918594 288.045675 
L 169.666914 288.256124 
L 176.009888 288.717347 
L 184.335041 289.568105 
L 199.003168 291.091984 
L 205.346142 291.503466 
L 211.094462 291.659097 
L 216.842782 291.587123 
L 222.78932 291.283108 
L 229.52873 290.70865 
L 240.628934 289.496807 
L 249.945177 288.578822 
L 256.288151 288.174439 
L 262.036471 288.026548 
L 267.586573 288.099803 
L 273.533111 288.403818 
L 280.272521 288.978276 
L 291.570943 290.212027 
L 300.688968 291.108153 
L 307.031942 291.512487 
L 312.780262 291.660428 
L 318.528582 291.580616 
L 324.47512 291.269355 
L 331.412748 290.669114 
L 344.098695 289.280762 
L 352.423849 288.500982 
L 358.568604 288.140917 
L 364.316925 288.023935 
L 370.065245 288.135001 
L 376.011783 288.474756 
L 383.147628 289.118772 
L 402.771204 291.155429 
L 403.167639 289.158013 
L 404.158729 286.174508 
L 404.753383 284.923054 
L 407.330216 278.93751 
L 407.92487 277.701634 
L 409.907049 273.591742 
L 411.096357 270.926252 
L 411.889228 269.15649 
L 413.078536 266.215923 
L 415.258933 261.303969 
L 418.628638 254.895357 
L 421.007253 251.250829 
L 421.998343 250.041573 
L 422.989433 249.024576 
L 423.782304 248.360052 
L 425.16983 247.48996 
L 425.962702 247.140444 
L 427.152009 246.749026 
L 428.143099 246.553317 
L 429.134189 246.46754 
L 430.125278 246.513386 
L 431.116368 246.712546 
L 432.107458 247.074386 
L 433.296765 247.708839 
L 434.486073 248.536535 
L 435.873598 249.712762 
L 438.053996 251.963664 
L 439.837957 254.224918 
L 441.820136 257.274924 
L 444.000534 261.183684 
L 446.973803 267.206793 
L 449.550636 273.105673 
L 452.127469 279.510834 
L 463.029455 307.198994 
L 465.606288 312.960336 
L 467.786686 317.328544 
L 469.570647 320.458411 
L 471.15639 322.841922 
L 472.742134 324.825634 
L 474.327877 326.412011 
L 475.715403 327.471404 
L 476.904711 328.127055 
L 478.094018 328.541642 
L 479.283326 328.716154 
L 480.472633 328.659462 
L 481.661941 328.389808 
L 483.049466 327.832751 
L 484.436992 327.031182 
L 486.022735 325.822419 
L 487.608479 324.300127 
L 489.194222 322.467758 
L 490.978184 320.051218 
L 492.960363 316.94107 
L 494.942542 313.386755 
L 497.12294 308.981081 
L 499.501555 303.665384 
L 502.474824 296.443372 
L 506.042747 287.147779 
L 513.37681 267.803287 
L 515.755425 262.240119 
L 517.737605 258.152904 
L 519.521566 254.9905 
L 521.10731 252.611426 
L 522.693053 250.639053 
L 524.080579 249.24099 
L 525.468104 248.149554 
L 526.85563 247.362773 
L 528.243155 246.87917 
L 529.432463 246.681982 
L 530.62177 246.683461 
L 531.811078 246.877198 
L 533.198604 247.339111 
L 534.586129 248.054411 
L 535.973655 249.019153 
L 537.559398 250.425597 
L 539.145142 252.151978 
L 540.730885 254.196818 
L 542.514846 256.87266 
L 544.497026 260.293873 
L 546.677423 264.557571 
L 549.056038 269.733758 
L 551.831089 276.350896 
L 555.399012 285.504759 
L 563.724165 307.170402 
L 566.300998 313.10872 
L 568.481396 317.564184 
L 570.265357 320.739404 
L 572.049318 323.45074 
L 573.635062 325.454664 
L 575.220805 327.076535 
L 576.608331 328.188676 
L 577.995856 329.022288 
L 579.383382 329.588218 
L 580.770908 329.890902 
L 581.960215 329.943156 
L 583.347741 329.763222 
L 584.735266 329.322507 
L 586.122792 328.619532 
L 587.510317 327.651831 
L 588.897843 326.417927 
L 590.483586 324.684644 
L 592.06933 322.614663 
L 593.853291 319.902341 
L 595.83547 316.452043 
L 598.015868 312.175034 
L 600.394483 307.002792 
L 603.169534 300.414246 
L 606.737457 291.318356 
L 614.864392 270.362295 
L 617.441225 264.466372 
L 619.621622 260.031613 
L 621.603802 256.521665 
L 623.387763 253.83202 
L 624.973507 251.838449 
L 626.361032 250.408343 
L 627.748558 249.28092 
L 629.136083 248.454702 
L 630.325391 247.984409 
L 631.514698 247.732008 
L 632.704006 247.694542 
L 633.893314 247.867575 
L 635.082621 248.245683 
L 636.470147 248.941757 
L 637.857672 249.906499 
L 639.245198 251.133009 
L 640.830941 252.848052 
L 642.416685 254.889934 
L 644.200646 257.56479 
L 646.182825 260.986496 
L 648.363223 265.252166 
L 650.741838 270.431803 
L 653.516889 277.037603 
L 657.084812 286.138324 
L 665.806401 308.663608 
L 668.383234 314.533403 
L 670.563631 318.952881 
L 672.545811 322.449025 
L 674.329772 325.12043 
L 675.915515 327.085902 
L 677.303041 328.480021 
L 678.690566 329.563569 
L 679.879874 330.242882 
L 681.069182 330.693457 
L 682.258489 330.915294 
L 683.447797 330.921702 
L 684.637104 330.715148 
L 685.826412 330.304997 
L 687.213938 329.577866 
L 688.601463 328.592418 
L 689.988989 327.356049 
L 691.574732 325.642978 
L 693.160476 323.615885 
L 694.944437 320.966664 
L 696.926616 317.57848 
L 698.908796 313.748102 
L 701.287411 308.629593 
L 704.062462 302.073584 
L 707.233949 294.066763 
L 707.233949 294.066763 
" clip-path="url(#p70d2d64f27)" style="fill: none; stroke: #1f77b4; stroke-width: 1.5; stroke-linecap: square"/>
   </g>
   <g id="line2d_86">
    <path d="M 98.506676 288.101972 
L 104.453214 288.408403 
L 111.390842 289.004601 
L 123.482136 290.327792 
L 132.005507 291.145077 
L 138.348481 291.532551 
L 144.096801 291.662449 
L 149.845121 291.564397 
L 155.791659 291.236424 
L 162.729286 290.622381 
L 186.911874 288.260807 
L 192.858412 288.043753 
L 198.606732 288.063176 
L 204.355052 288.305668 
L 210.896244 288.81323 
L 219.816051 289.753171 
L 232.303781 291.048011 
L 238.844973 291.487888 
L 244.593293 291.656238 
L 250.143395 291.603243 
L 256.089933 291.31875 
L 262.829343 290.760609 
L 273.136675 289.643953 
L 283.24579 288.622302 
L 289.786982 288.189622 
L 295.535302 288.028914 
L 301.283622 288.095613 
L 307.23016 288.394797 
L 313.969569 288.965212 
L 325.069774 290.175523 
L 334.386017 291.097407 
L 340.72899 291.506523 
L 346.477311 291.65954 
L 352.027413 291.591313 
L 357.973951 291.292179 
L 364.71336 290.721763 
L 375.813565 289.511443 
L 385.129807 288.589569 
L 391.472781 288.180453 
L 397.221101 288.027386 
L 402.771204 288.095613 
L 403.167639 290.136578 
L 404.158729 293.235122 
L 404.753383 294.556972 
L 407.330216 300.82982 
L 407.92487 302.121402 
L 409.907049 306.400875 
L 411.096357 309.164466 
L 411.889228 311.002751 
L 413.078536 314.055715 
L 415.258933 319.189506 
L 419.223292 327.140128 
L 420.809035 329.669065 
L 421.998343 331.304247 
L 422.989433 332.436106 
L 423.782304 333.182463 
L 425.16983 334.174319 
L 425.962702 334.579048 
L 427.152009 335.035045 
L 428.143099 335.266741 
L 429.134189 335.372729 
L 429.92706 335.355475 
L 431.116368 335.124765 
L 432.107458 334.739756 
L 433.098547 334.18615 
L 434.287855 333.32641 
L 435.477163 332.294131 
L 436.864688 330.891631 
L 438.846867 328.507135 
L 440.829047 325.583329 
L 443.009444 321.747035 
L 445.982713 315.766815 
L 448.757764 309.484403 
L 451.136379 303.567283 
L 464.218763 269.739673 
L 466.795596 263.955655 
L 468.975993 259.595827 
L 470.759955 256.502933 
L 472.345698 254.163296 
L 473.931442 252.220994 
L 475.318967 250.853988 
L 476.706493 249.815793 
L 477.8958 249.202538 
L 479.085108 248.850557 
L 480.274415 248.755907 
L 481.463723 248.905277 
L 482.653031 249.277469 
L 484.040556 249.974036 
L 485.428082 250.942723 
L 486.815607 252.178106 
L 488.401351 253.907938 
L 489.987094 255.960172 
L 491.771056 258.627141 
L 493.753235 262.01631 
L 495.735414 265.846688 
L 497.915811 270.536806 
L 500.492645 276.615128 
L 503.664132 284.699345 
L 507.826708 295.99329 
L 513.37681 311.019512 
L 515.953643 317.367489 
L 518.134041 322.141411 
L 519.918002 325.538468 
L 521.503745 328.137407 
L 523.089489 330.324222 
L 524.477014 331.882501 
L 525.86454 333.110982 
L 527.053848 333.901707 
L 528.441373 334.524328 
L 529.630681 334.813208 
L 530.819988 334.880252 
L 532.009296 334.730389 
L 533.198604 334.372986 
L 534.586129 333.695645 
L 535.973655 332.745692 
L 537.36118 331.530027 
L 538.946924 329.822379 
L 540.532667 327.782961 
L 542.316628 325.100711 
L 544.10059 322.023098 
L 546.082769 318.174481 
L 548.263166 313.475983 
L 550.84 307.386323 
L 554.011487 299.274006 
L 559.165153 285.356868 
L 563.724165 273.297932 
L 566.499216 266.601425 
L 568.679614 261.888631 
L 570.661793 258.131213 
L 572.445754 255.237971 
L 574.031498 253.078269 
L 575.419023 251.513582 
L 576.806549 250.254043 
L 578.194074 249.293244 
L 579.5816 248.623298 
L 580.770908 248.278219 
L 581.960215 248.141666 
L 583.149523 248.211668 
L 584.33883 248.488224 
L 585.528138 248.969363 
L 586.915663 249.790158 
L 588.303189 250.889975 
L 589.690715 252.267333 
L 591.276458 254.174142 
L 592.862201 256.42455 
L 594.646163 259.338497 
L 596.628342 263.015068 
L 598.808739 267.538069 
L 601.385573 273.436456 
L 604.358842 280.833473 
L 608.521418 291.850221 
L 614.467956 307.570693 
L 617.243007 314.292341 
L 619.621622 319.471485 
L 621.603802 323.270806 
L 623.387763 326.228627 
L 624.973507 328.455373 
L 626.55925 330.285771 
L 627.946776 331.547281 
L 629.334301 332.491319 
L 630.523609 333.047882 
L 631.712916 333.372257 
L 632.902224 333.466907 
L 634.091532 333.336763 
L 635.280839 332.986261 
L 636.470147 332.420824 
L 637.857672 331.496012 
L 639.245198 330.293165 
L 640.830941 328.588968 
L 642.416685 326.544127 
L 644.200646 323.853004 
L 645.984608 320.766518 
L 647.966787 316.910505 
L 650.345402 311.753052 
L 652.922235 305.620504 
L 656.29194 296.987118 
L 667.590362 267.451799 
L 669.968977 262.135116 
L 671.951157 258.192834 
L 673.735118 255.092545 
L 675.320862 252.734176 
L 676.708387 251.003851 
L 678.095913 249.594942 
L 679.483438 248.514845 
L 680.672746 247.854758 
L 681.862053 247.437705 
L 683.051361 247.262208 
L 684.240669 247.315941 
L 685.429976 247.593976 
L 686.619284 248.087933 
L 688.006809 248.926475 
L 689.394335 250.037136 
L 690.980078 251.626472 
L 692.565822 253.545605 
L 694.349783 256.087359 
L 696.133745 259.021517 
L 698.115924 262.717807 
L 700.296321 267.273344 
L 702.873154 273.223986 
L 706.044641 281.174608 
L 707.233949 284.274404 
L 707.233949 284.274404 
" clip-path="url(#p70d2d64f27)" style="fill: none; stroke: #ff7f0e; stroke-width: 1.5; stroke-linecap: square"/>
   </g>
   <g id="line2d_87">
    <path d="M 98.506676 290.257691 
L 115.156983 288.536723 
L 121.499956 288.151664 
L 127.248276 288.024329 
L 132.996597 288.124994 
L 138.943135 288.455383 
L 145.880762 289.071349 
L 169.865132 291.418774 
L 175.81167 291.640955 
L 181.361772 291.631145 
L 187.110092 291.400879 
L 193.453066 290.922254 
L 201.976437 290.037693 
L 215.455257 288.633394 
L 221.996448 288.195932 
L 227.744769 288.030097 
L 233.493089 288.091571 
L 239.439627 288.385874 
L 246.179036 288.952247 
L 256.882805 290.116835 
L 266.595483 291.086611 
L 272.938457 291.500459 
L 278.686777 291.658604 
L 284.435097 291.589292 
L 290.381635 291.287693 
L 297.121045 290.715256 
L 308.221249 289.504152 
L 317.537492 288.584196 
L 323.880466 288.177446 
L 329.628786 288.026992 
L 335.178888 288.097733 
L 341.125426 288.399332 
L 347.864836 288.971769 
L 358.96504 290.182863 
L 368.281283 291.102829 
L 374.624257 291.509579 
L 380.372577 291.660033 
L 386.120897 291.582834 
L 392.067435 291.273989 
L 398.806845 290.695587 
L 419.223292 288.543476 
L 424.773394 287.897883 
L 428.539535 287.700497 
L 432.305676 287.722435 
L 437.261124 287.998202 
L 458.668661 289.405109 
L 464.416981 289.884148 
L 469.372429 290.528815 
L 480.472633 292.106418 
L 483.842338 292.269098 
L 487.806697 292.222364 
L 496.528286 291.80122 
L 510.403541 291.000439 
L 514.764336 290.531526 
L 518.728694 289.870093 
L 527.252066 288.32514 
L 530.819988 287.948018 
L 534.586129 287.780359 
L 539.541577 287.80057 
L 548.064949 288.093444 
L 559.759807 288.718234 
L 564.913473 289.193507 
L 569.868921 289.888297 
L 578.392292 291.139753 
L 582.554869 291.481677 
L 587.510317 291.651209 
L 593.853291 291.632821 
L 601.58379 291.374357 
L 612.485777 290.805618 
L 617.243007 290.341388 
L 622.991327 289.529461 
L 629.532519 288.656416 
L 634.091532 288.277618 
L 638.848762 288.109613 
L 645.191736 288.126571 
L 654.111543 288.376507 
L 663.03135 288.848576 
L 667.78858 289.307235 
L 673.140464 290.063456 
L 680.474528 291.086068 
L 684.835322 291.44219 
L 689.394335 291.577165 
L 696.133745 291.520769 
L 706.441077 291.224741 
L 707.233949 291.189148 
L 707.233949 291.189148 
" clip-path="url(#p70d2d64f27)" style="fill: none; stroke: #2ca02c; stroke-width: 1.5; stroke-linecap: square"/>
   </g>
   <g id="patch_13">
    <path d="M 68.070312 339.84 
L 68.070312 242.004706 
" style="fill: none; stroke: #000000; stroke-width: 0.8; stroke-linejoin: miter; stroke-linecap: square"/>
   </g>
   <g id="patch_14">
    <path d="M 737.670313 339.84 
L 737.670313 242.004706 
" style="fill: none; stroke: #000000; stroke-width: 0.8; stroke-linejoin: miter; stroke-linecap: square"/>
   </g>
   <g id="patch_15">
    <path d="M 68.070312 339.84 
L 737.670313 339.84 
" style="fill: none; stroke: #000000; stroke-width: 0.8; stroke-linejoin: miter; stroke-linecap: square"/>
   </g>
   <g id="patch_16">
    <path d="M 68.070312 242.004706 
L 737.670313 242.004706 
" style="fill: none; stroke: #000000; stroke-width: 0.8; stroke-linejoin: miter; stroke-linecap: square"/>
   </g>
  </g>
 </g>
 <defs>
  <clipPath id="p8f0f3f11b5">
   <rect x="68.070312" y="7.2" width="669.6" height="97.835294"/>
  </clipPath>
  <clipPath id="p5c167c5f10">
   <rect x="68.070312" y="124.602353" width="669.6" height="97.835294"/>
  </clipPath>
  <clipPath id="p70d2d64f27">
   <rect x="68.070312" y="242.004706" width="669.6" height="97.835294"/>
  </clipPath>
 </defs>
</svg>
