<?xml version="1.0" standalone="no"?>
<!DOCTYPE svg PUBLIC "-//W3C//DTD SVG 20010904//EN"
 "http://www.w3.org/TR/2001/REC-SVG-20010904/DTD/svg10.dtd">
<svg version="1.0" xmlns="http://www.w3.org/2000/svg"
 width="2048.000000pt" height="2048.000000pt" viewBox="0 0 2048.000000 2048.000000"
 preserveAspectRatio="xMidYMid meet">

<g transform="translate(0.000000,2048.000000) scale(0.100000,-0.100000)"
fill="#000000" stroke="none">
<path d="M2680 13170 c-86 -29 -145 -67 -199 -125 -55 -61 -71 -98 -151 -355
-29 -91 -62 -196 -75 -235 -13 -38 -42 -131 -65 -205 -23 -74 -61 -196 -85
-270 -24 -74 -67 -209 -95 -300 -29 -91 -65 -208 -82 -260 -16 -52 -36 -112
-44 -133 -8 -20 -14 -46 -14 -57 0 -20 8 -20 364 -20 279 0 366 3 374 13 5 6
18 37 28 67 16 53 36 114 214 670 45 140 90 282 101 315 31 100 106 332 155
480 53 161 65 254 41 302 -24 45 -78 88 -142 112 -76 28 -244 29 -325 1z"/>
<path d="M10768 11891 c-58 -37 -78 -66 -123 -181 -20 -52 -66 -169 -102 -260
-36 -91 -71 -182 -79 -202 l-13 -38 1825 0 c1796 0 1825 0 1863 20 48 24 95
79 114 134 8 23 51 135 96 249 44 115 81 219 81 232 0 12 -12 34 -26 49 l-27
26 -1781 0 -1782 0 -46 -29z"/>
<path d="M15340 11897 c-65 -34 -91 -76 -165 -267 -37 -96 -87 -225 -111 -285
-24 -61 -44 -116 -44 -123 0 -9 397 -12 1821 -12 2029 0 1854 -6 1922 69 19
21 47 71 62 112 15 41 57 148 93 239 79 201 84 229 49 264 l-26 26 -1779 0
-1779 0 -43 -23z"/>
<path d="M1745 10853 c-5 -25 -58 -193 -160 -513 -18 -58 -54 -172 -80 -255
-26 -82 -60 -188 -75 -235 -15 -47 -45 -139 -65 -205 -21 -66 -48 -153 -61
-194 -46 -141 -23 -219 81 -274 l40 -22 1704 -3 c1925 -3 1773 -9 1863 76 53
49 81 97 124 209 48 129 51 209 9 298 -23 50 -85 101 -137 114 -35 8 -398 11
-1316 11 -698 0 -1278 3 -1288 6 -41 15 -77 49 -95 88 -27 60 -25 172 5 266
13 41 50 156 81 255 32 99 73 227 91 284 19 57 34 108 34 112 0 5 -168 9 -374
9 l-374 0 -7 -27z"/>
<path d="M12178 10852 l-1826 -2 -20 -68 c-11 -37 -22 -76 -25 -87 -3 -11 -35
-123 -72 -250 -37 -126 -73 -252 -80 -280 -7 -27 -45 -162 -86 -300 -73 -249
-74 -250 -74 -370 0 -106 3 -125 23 -167 38 -75 94 -131 169 -169 l68 -34
1610 -3 c1438 -2 1614 -1 1650 13 46 18 75 40 98 75 22 35 177 505 177 540 0
15 -9 38 -19 51 l-19 24 -1479 5 c-1455 5 -1479 5 -1512 25 -49 29 -73 67 -78
122 -6 56 20 102 76 140 l34 23 1511 0 c1444 0 1513 1 1551 19 78 35 94 68
210 436 27 83 48 163 47 179 -1 37 -36 73 -75 77 -18 2 -854 3 -1859 1z"/>
<path d="M14904 10823 c-3 -16 -14 -55 -24 -88 -10 -33 -32 -109 -49 -170 -17
-60 -43 -150 -57 -200 -14 -49 -29 -103 -34 -120 -4 -16 -14 -55 -23 -85 -35
-116 -77 -261 -122 -424 -44 -159 -47 -175 -43 -265 4 -80 9 -105 32 -149 36
-71 99 -132 172 -168 l59 -29 1608 -3 c1051 -1 1621 1 1645 8 58 16 111 70
132 136 4 16 40 123 79 238 76 224 84 271 50 302 -20 18 -63 19 -1498 24
-1437 5 -1477 6 -1508 24 -52 32 -73 69 -75 131 -2 62 16 94 72 133 l33 22
1514 0 c1468 0 1515 1 1551 19 42 22 73 53 95 96 8 17 49 137 91 269 69 216
76 242 66 272 -7 19 -20 39 -30 44 -12 7 -666 10 -1874 10 l-1856 0 -6 -27z"/>
<path d="M1279 8750 c-104 -31 -159 -155 -111 -249 9 -19 34 -48 55 -65 l39
-31 8552 0 8552 0 37 25 c50 34 77 86 77 149 0 80 -37 134 -112 166 -34 13
-888 15 -8550 14 -4682 0 -8525 -4 -8539 -9z"/>
<path d="M4431 8128 c-5 -13 -20 -49 -34 -80 l-26 -58 22 0 c16 1 36 21 72 73
28 40 52 75 53 80 2 4 -15 7 -37 7 -34 0 -43 -4 -50 -22z"/>
<path d="M16541 8093 c-42 -85 -46 -103 -24 -103 12 0 37 25 66 64 65 89 67
96 23 96 -34 0 -37 -4 -65 -57z"/>
<path d="M7292 8110 c-49 -30 -72 -88 -72 -183 0 -91 23 -148 69 -171 15 -8
68 -20 116 -26 49 -6 96 -15 106 -21 27 -14 35 -73 15 -104 -15 -22 -24 -25
-76 -25 -62 0 -100 21 -100 55 0 12 -14 15 -65 15 l-65 0 0 -54 c0 -39 6 -62
23 -87 36 -53 66 -62 209 -63 114 -1 129 1 155 20 47 35 66 79 71 163 9 160
-25 202 -184 227 -110 18 -134 32 -134 79 0 38 13 51 59 58 57 9 93 -3 105
-35 10 -27 13 -28 74 -28 l64 0 -4 60 c-3 46 -10 66 -29 86 -40 43 -78 54
-196 54 -91 0 -113 -3 -141 -20z"/>
<path d="M1170 7785 l0 -335 197 2 197 3 3 72 4 72 -128 3 -128 3 -3 258 -2
257 -70 0 -70 0 0 -335z"/>
<path d="M2100 7785 l0 -335 55 0 c51 0 55 2 55 23 0 36 8 37 40 6 24 -24 37
-29 78 -29 100 0 127 51 127 240 0 143 -15 194 -67 224 -38 23 -101 16 -132
-13 -12 -12 -25 -21 -29 -21 -3 0 -8 53 -9 118 l-3 117 -57 3 -58 3 0 -336z
m220 15 c17 -17 20 -33 20 -111 0 -112 -8 -129 -60 -129 -29 0 -42 5 -50 19
-11 22 -14 200 -2 217 18 28 66 30 92 4z"/>
<path d="M5100 8070 l0 -50 60 0 60 0 0 50 0 50 -60 0 -60 0 0 -50z"/>
<path d="M6280 8000 c0 -66 -3 -120 -6 -120 -3 0 -20 11 -38 25 -57 43 -140
26 -172 -36 -19 -38 -30 -188 -20 -282 7 -57 13 -73 40 -102 30 -31 39 -35 85
-35 46 0 56 4 81 32 23 25 30 28 35 16 3 -8 5 -21 3 -29 -2 -10 12 -15 55 -17
l57 -3 0 336 0 335 -60 0 -60 0 0 -120z m-16 -202 c12 -16 16 -47 16 -111 0
-110 -8 -127 -60 -127 -52 0 -60 17 -60 127 0 103 14 133 60 133 18 0 34 -8
44 -22z"/>
<path d="M7780 8068 l0 -53 52 2 c29 0 56 2 61 2 4 1 7 24 7 51 l0 50 -60 0
-60 0 0 -52z"/>
<path d="M11380 8007 c0 -63 -3 -116 -6 -119 -3 -4 -22 5 -41 18 -66 45 -134
27 -170 -46 -20 -39 -23 -59 -23 -172 0 -138 9 -178 51 -217 34 -32 115 -30
151 4 15 14 30 25 33 25 3 0 5 -11 5 -25 0 -24 3 -25 55 -25 l55 0 0 335 0
335 -55 0 -55 0 0 -113z m-20 -207 c17 -17 20 -33 20 -112 -1 -62 -5 -99 -14
-110 -19 -25 -82 -24 -96 1 -11 22 -14 200 -2 217 18 28 66 30 92 4z"/>
<path d="M12340 7785 l0 -335 210 0 210 0 0 70 0 70 -140 0 -140 0 0 70 0 69
133 3 132 3 3 57 3 57 -133 3 -133 3 -3 63 -3 62 136 0 135 0 0 70 0 70 -205
0 -205 0 0 -335z"/>
<path d="M14640 8071 l0 -49 50 -4 c28 -1 55 -1 60 0 6 2 10 26 10 53 l0 49
-60 0 -60 0 0 -49z"/>
<path d="M15620 7785 l0 -335 210 0 210 0 0 70 0 70 -140 0 -140 0 0 70 0 70
130 0 130 0 0 60 0 60 -130 0 -130 0 0 65 0 64 133 3 132 3 3 68 3 67 -206 0
-205 0 0 -335z"/>
<path d="M16155 8107 c-3 -7 -4 -156 -3 -332 l3 -320 58 -3 57 -3 0 336 0 335
-55 0 c-36 0 -57 -5 -60 -13z"/>
<path d="M17632 8068 l3 -53 55 0 55 0 3 53 3 52 -61 0 -61 0 3 -52z"/>
<path d="M3869 7983 c-1 -16 -1 -33 0 -40 1 -7 -10 -15 -24 -19 -22 -6 -25
-11 -25 -54 0 -43 3 -49 23 -52 21 -3 22 -7 27 -160 5 -148 6 -158 29 -182 23
-24 31 -26 116 -26 86 0 94 2 118 26 19 18 28 41 33 80 9 73 3 84 -46 84 -22
0 -40 -3 -41 -7 -6 -67 -15 -83 -47 -83 -48 0 -53 16 -50 146 l3 119 80 5 80
5 3 47 3 47 -83 3 -83 3 -3 43 -3 42 -55 0 c-52 0 -54 -1 -55 -27z"/>
<path d="M8468 7968 c-2 -25 -8 -44 -15 -44 -7 -1 -18 -2 -24 -3 -6 0 -9 -20
-7 -48 3 -41 6 -48 26 -51 21 -3 22 -7 22 -125 0 -154 6 -191 38 -222 23 -23
32 -25 117 -25 84 0 93 2 114 24 22 23 41 109 33 149 -6 27 -86 20 -90 -8 -9
-61 -12 -65 -46 -65 -22 0 -36 6 -40 16 -3 9 -6 69 -6 134 l0 119 83 3 82 3 3
48 c2 26 -1 47 -5 48 -4 0 -42 1 -83 2 l-75 2 -3 43 -3 42 -59 0 -59 0 -3 -42z"/>
<path d="M16839 7993 c-1 -10 -2 -29 -2 -43 -2 -18 -8 -25 -22 -25 -17 0 -20
-8 -23 -52 -3 -47 -1 -52 20 -55 23 -3 23 -6 28 -153 7 -206 14 -215 153 -215
75 0 87 3 110 24 26 24 42 88 35 137 -2 20 -9 24 -43 27 -41 3 -41 3 -50 -40
-9 -41 -12 -43 -45 -43 l-35 0 -6 120 c-3 66 -4 126 -1 133 3 8 29 12 83 12
l79 0 0 50 0 50 -74 0 c-82 0 -95 8 -91 58 l3 32 -59 0 c-49 0 -59 -3 -60 -17z"/>
<path d="M1698 7914 c-32 -17 -48 -43 -48 -78 0 -25 3 -26 54 -26 39 0 55 4
60 15 7 18 76 21 94 3 13 -13 17 -118 5 -118 -5 1 -19 7 -33 15 -29 16 -107
19 -144 5 -14 -5 -32 -20 -41 -33 -36 -55 -27 -185 16 -228 29 -29 144 -27
176 3 l24 22 6 -22 c5 -19 12 -22 59 -22 l54 0 0 195 c0 221 -6 246 -65 271
-46 19 -181 18 -217 -2z m152 -264 c20 -12 20 -88 0 -100 -28 -18 -88 -12
-100 9 -15 29 -12 67 6 85 17 18 71 21 94 6z"/>
<path d="M2619 7914 c-59 -25 -73 -61 -77 -201 -3 -94 0 -133 12 -171 26 -77
42 -86 153 -90 171 -7 187 11 191 223 3 172 -7 207 -68 237 -44 22 -160 23
-211 2z m149 -106 c8 -8 12 -50 12 -125 0 -101 -2 -113 -19 -123 -24 -12 -61
-13 -81 0 -18 11 -27 191 -11 233 9 23 16 27 49 27 21 0 43 -5 50 -12z"/>
<path d="M3014 7921 c-2 -2 -4 -109 -4 -238 l0 -233 55 0 55 0 0 163 c0 182 5
201 55 195 27 -3 31 -8 35 -43 l5 -40 53 -3 52 -3 0 61 c0 69 -19 123 -48 139
-38 20 -82 13 -114 -19 -36 -36 -38 -37 -38 -6 0 22 -5 24 -51 28 -28 1 -53 1
-55 -1z"/>
<path d="M3458 7914 c-31 -16 -62 -69 -54 -90 8 -21 112 -19 120 2 4 11 17 14
48 12 l43 -3 3 -62 c2 -35 0 -63 -3 -63 -3 0 -17 7 -30 16 -19 12 -41 15 -87
12 -50 -4 -65 -9 -84 -31 -44 -51 -43 -189 2 -234 20 -19 33 -23 90 -23 55 0
72 4 90 21 l22 21 7 -21 c5 -18 14 -21 61 -21 l54 0 0 189 c0 218 -6 243 -61
271 -48 25 -179 27 -221 4z m151 -263 c8 -5 14 -26 14 -51 0 -25 -6 -46 -14
-51 -20 -13 -83 -11 -97 3 -19 19 -15 85 6 97 21 13 72 14 91 2z"/>
<path d="M4308 7908 c-53 -31 -63 -67 -63 -228 0 -108 4 -141 18 -167 29 -54
51 -63 154 -63 164 0 183 25 183 242 0 163 -12 197 -75 224 -54 22 -172 18
-217 -8z m161 -104 c10 -9 16 -43 19 -102 5 -113 -11 -152 -63 -152 -52 0 -65
27 -65 132 0 96 10 134 37 141 24 6 55 -2 72 -19z"/>
<path d="M4758 7922 l-48 -3 0 -235 0 -234 55 0 55 0 1 153 c1 191 4 202 49
202 33 0 35 -2 40 -40 l5 -40 54 -3 54 -3 -5 82 c-4 74 -8 85 -32 106 -39 34
-90 31 -128 -7 -36 -36 -38 -37 -38 -6 0 30 -3 32 -62 28z"/>
<path d="M5104 7921 c-2 -2 -4 -109 -4 -238 l0 -233 60 0 60 0 0 234 0 234
-56 4 c-31 1 -58 1 -60 -1z"/>
<path d="M5393 7913 c-50 -25 -67 -71 -71 -197 -5 -139 8 -206 49 -241 28 -23
38 -25 126 -25 163 0 183 25 183 237 0 159 -12 197 -70 225 -46 23 -172 23
-217 1z m159 -107 c17 -26 14 -221 -3 -243 -20 -23 -81 -13 -96 17 -15 29 -17
177 -4 214 14 35 83 43 103 12z"/>
<path d="M6568 7910 c-49 -27 -68 -87 -68 -222 0 -125 14 -181 52 -213 27 -23
38 -25 125 -25 112 0 144 14 168 72 25 63 22 68 -39 68 -46 0 -56 -3 -70 -25
-13 -19 -25 -25 -54 -25 -51 0 -62 14 -62 77 l0 53 121 0 121 0 -4 89 c-5 102
-19 133 -74 156 -53 22 -170 19 -216 -5z m160 -79 c8 -4 16 -27 19 -50 l6 -41
-67 0 -66 0 0 31 c0 50 16 69 58 69 20 0 43 -4 50 -9z"/>
<path d="M8084 7923 c-12 -2 -34 -17 -49 -34 -23 -23 -30 -40 -33 -87 -7 -105
33 -147 150 -158 35 -4 71 -14 81 -22 21 -19 22 -55 1 -76 -28 -29 -114 -14
-114 19 0 12 -14 15 -60 15 l-60 0 0 -31 c0 -22 10 -41 34 -65 l34 -34 110 0
c104 0 112 1 141 26 37 31 55 91 47 153 -10 75 -42 97 -160 112 -39 5 -74 13
-79 18 -14 14 -11 62 4 72 27 17 88 10 101 -11 10 -16 24 -20 66 -20 62 0 70
11 48 64 -21 50 -63 66 -163 65 -43 -1 -88 -4 -99 -6z"/>
<path d="M8924 7915 c-55 -24 -67 -56 -72 -187 -6 -160 2 -204 43 -245 33 -33
34 -33 127 -33 54 0 103 5 117 13 31 16 58 54 66 95 l7 32 -55 0 c-47 0 -57
-3 -71 -25 -13 -19 -25 -25 -54 -25 -51 0 -62 14 -62 77 l0 53 121 0 122 0 -5
83 c-5 97 -24 138 -72 161 -42 20 -167 20 -212 1z m154 -88 c17 -20 25 -66 14
-80 -7 -8 -30 -11 -66 -9 l-56 4 0 37 c0 20 5 42 12 49 16 16 83 15 96 -1z"/>
<path d="M9342 7923 l-32 -4 2 -232 3 -232 57 -3 56 -3 2 162 c0 89 5 170 11
180 13 26 65 25 79 0 6 -11 10 -89 10 -181 l0 -161 55 3 55 3 3 160 c2 88 7
168 11 178 6 13 18 17 44 15 47 -4 50 -15 51 -205 l1 -153 55 0 55 0 0 188 c0
213 -8 255 -50 277 -51 26 -95 20 -135 -21 -20 -20 -37 -34 -39 -32 -1 1 -10
15 -19 30 -31 49 -118 50 -162 2 l-24 -26 -7 26 c-3 14 -10 26 -14 26 -5 0
-14 2 -22 3 -7 2 -28 2 -46 0z"/>
<path d="M10033 7914 c-29 -15 -53 -55 -53 -90 0 -21 103 -19 120 1 9 11 27
15 54 13 l41 -3 3 -62 c2 -35 1 -63 -1 -63 -3 0 -18 7 -33 15 -16 8 -53 15
-81 15 -44 0 -58 -5 -85 -29 -31 -27 -33 -34 -36 -108 -3 -69 -1 -82 20 -113
23 -34 26 -35 92 -38 49 -2 75 1 92 13 29 19 34 19 34 0 0 -12 13 -15 60 -15
l60 0 0 193 c0 175 -2 195 -20 225 -11 18 -36 40 -55 48 -46 19 -171 18 -212
-2z m155 -266 c7 -7 12 -28 12 -48 0 -20 -5 -41 -12 -48 -7 -7 -28 -12 -48
-12 -20 0 -41 5 -48 12 -7 7 -12 28 -12 48 0 20 5 41 12 48 7 7 28 12 48 12
20 0 41 -5 48 -12z"/>
<path d="M10477 7909 c-47 -25 -60 -56 -55 -136 3 -48 9 -68 27 -87 23 -25 93
-46 151 -46 34 0 70 -31 70 -59 0 -53 -83 -70 -124 -26 -19 20 -33 25 -74 25
-28 0 -53 -4 -56 -8 -12 -20 19 -85 49 -103 46 -29 232 -27 268 1 35 28 61
100 54 152 -11 80 -50 106 -189 123 -56 7 -74 29 -58 69 8 23 15 26 55 26 34
0 48 -5 57 -20 10 -16 24 -20 65 -20 51 0 53 1 53 28 0 35 -23 68 -60 87 -45
23 -185 20 -233 -6z"/>
<path d="M11681 7917 c-19 -7 -44 -25 -55 -40 -19 -26 -21 -42 -21 -180 0
-227 15 -247 178 -247 108 0 136 13 163 78 21 52 13 62 -48 62 -46 0 -55 -3
-63 -22 -7 -17 -20 -24 -48 -26 -21 -2 -45 2 -52 8 -18 15 -29 71 -20 99 6 20
13 21 126 21 l119 0 -1 68 c0 90 -24 149 -69 173 -41 22 -154 25 -209 6z m147
-89 c7 -7 12 -29 12 -50 l0 -38 -65 0 -66 0 7 38 c4 20 11 43 17 50 12 15 79
16 95 0z"/>
<path d="M13060 7923 c-8 -3 -27 -17 -42 -31 -23 -22 -28 -23 -34 -9 -3 9 -3
21 1 27 4 6 -15 10 -55 10 l-60 0 2 -232 3 -233 58 -3 57 -3 0 161 c0 92 4
170 10 181 8 14 21 19 50 19 29 0 42 -5 50 -19 6 -11 10 -89 10 -180 l0 -161
60 0 60 0 0 169 c0 206 -11 266 -55 292 -29 18 -83 24 -115 12z"/>
<path d="M13400 7912 c-55 -27 -74 -77 -78 -203 -5 -120 13 -202 49 -235 30
-27 201 -34 249 -9 32 16 60 65 60 105 0 18 -6 20 -53 20 -48 0 -55 -3 -65
-25 -9 -20 -19 -25 -49 -25 -57 0 -67 11 -68 72 l0 53 118 3 119 3 -4 93 c-3
104 -15 127 -75 152 -47 20 -160 18 -203 -4z m158 -84 c7 -7 12 -29 12 -50 l0
-38 -66 0 -67 0 6 41 c3 23 11 46 19 50 20 13 82 11 96 -3z"/>
<path d="M13938 7900 c-36 -36 -38 -37 -38 -5 0 24 -3 25 -55 25 l-55 0 0
-235 0 -235 55 0 55 0 0 149 c0 174 9 211 51 211 31 0 49 -23 49 -64 0 -24 3
-26 50 -26 62 0 67 8 52 98 -9 51 -17 72 -37 90 -38 33 -89 30 -127 -8z"/>
<path d="M14232 7910 c-51 -31 -62 -70 -62 -222 0 -114 3 -138 20 -165 39 -65
119 -79 182 -33 15 11 30 20 33 20 9 0 6 -87 -5 -114 -8 -22 -16 -26 -49 -26
-30 0 -43 5 -51 20 -8 16 -21 20 -60 20 l-50 0 0 -36 c0 -76 41 -104 156 -104
59 0 84 5 109 20 60 37 65 68 65 365 0 145 -3 266 -7 268 -5 2 -32 2 -60 -1
-44 -3 -53 -7 -53 -23 0 -10 -4 -19 -10 -19 -5 0 -10 4 -10 8 0 14 -57 42 -87
42 -15 0 -43 -9 -61 -20z m162 -112 c18 -26 22 -170 6 -212 -8 -22 -16 -26
-49 -26 -50 0 -62 16 -68 94 -7 76 2 129 23 151 23 23 70 19 88 -7z"/>
<path d="M14688 7922 l-48 -3 0 -235 0 -234 60 0 60 0 0 234 c0 179 -3 235
-12 237 -7 2 -34 3 -60 1z"/>
<path d="M14933 7914 c-29 -15 -53 -55 -53 -90 0 -20 103 -19 120 1 15 18 89
20 95 3 8 -25 12 -109 5 -113 -4 -3 -22 3 -40 11 -49 25 -134 15 -168 -19 -23
-23 -27 -37 -30 -101 -4 -79 11 -126 47 -146 30 -15 134 -12 157 5 24 18 45
19 42 3 -2 -9 15 -14 55 -16 l57 -3 0 191 c0 212 -5 235 -63 270 -41 26 -176
28 -224 4z m155 -266 c7 -7 12 -28 12 -48 0 -45 -15 -60 -60 -60 -45 0 -60 15
-60 60 0 45 15 60 60 60 20 0 41 -5 48 -12z"/>
<path d="M16444 7915 c-55 -25 -67 -57 -72 -187 -6 -160 2 -204 43 -245 33
-33 34 -33 127 -33 54 0 103 5 117 13 32 16 59 56 63 92 3 30 3 30 -52 33 -49
3 -56 0 -65 -20 -7 -17 -20 -24 -48 -26 -54 -5 -67 10 -67 74 l0 54 121 0 122
0 -5 84 c-6 88 -23 132 -62 156 -30 20 -183 23 -222 5z m164 -107 c8 -17 9
-34 3 -50 -8 -21 -14 -23 -65 -20 l-56 4 0 37 c0 48 16 63 65 59 32 -2 42 -8
53 -30z"/>
<path d="M17277 7922 l-47 -3 3 -232 2 -232 58 -3 57 -3 0 166 c0 150 2 167
19 184 12 12 27 17 40 14 20 -5 26 -17 33 -68 3 -17 12 -21 56 -23 l52 -3 0
48 c-1 110 -32 162 -97 163 -22 0 -44 -10 -68 -31 -33 -29 -40 -28 -36 7 2 16
-15 20 -72 16z"/>
<path d="M17663 7922 l-33 -3 0 -235 0 -234 60 0 60 0 -2 238 -3 237 -25 0
c-14 0 -40 -1 -57 -3z"/>
<path d="M17923 7915 c-50 -21 -66 -64 -71 -183 -6 -155 3 -209 43 -249 33
-33 34 -33 129 -33 66 0 106 5 125 15 33 16 61 77 61 130 l0 35 -60 0 c-59 0
-60 0 -60 -28 0 -37 -17 -52 -56 -52 -55 0 -64 18 -64 134 0 106 7 129 45 140
29 8 68 -15 75 -44 5 -23 11 -25 60 -25 l55 0 -3 49 c-3 61 -22 91 -68 111
-46 19 -168 19 -211 0z"/>
<path d="M18362 7910 c-31 -19 -52 -54 -52 -86 0 -21 103 -20 120 1 9 11 27
15 54 13 l41 -3 3 -62 c3 -66 -1 -72 -32 -48 -12 9 -42 15 -79 15 -51 0 -62
-4 -87 -28 -34 -35 -45 -82 -35 -158 10 -80 37 -104 120 -104 38 0 68 5 81 15
25 19 34 19 34 0 0 -12 13 -15 61 -15 l61 0 -4 203 c-3 226 -6 236 -71 262
-56 23 -174 20 -215 -5z m156 -262 c18 -18 15 -95 -4 -102 -26 -10 -79 -7 -92
6 -7 7 -12 28 -12 48 0 45 15 60 60 60 20 0 41 -5 48 -12z"/>
<path d="M7780 7685 l0 -235 60 0 60 0 0 235 0 235 -60 0 -60 0 0 -235z"/>
</g>
</svg>
